<svg xmlns="http://www.w3.org/2000/svg" width="140" height="119" viewBox="0 0 140 119">
    <defs>
        <linearGradient id="a" x1="0%" y1="50%" y2="50%">
            <stop offset="0%" stop-color="gray" stop-opacity=".25"/>
            <stop offset="54%" stop-color="gray" stop-opacity=".12"/>
            <stop offset="100%" stop-color="gray" stop-opacity=".1"/>
        </linearGradient>
        <linearGradient id="b" x1="42.436%" x2="57.4%" y1="99.166%" y2=".587%">
            <stop offset="0%" stop-color="gray" stop-opacity=".25"/>
            <stop offset="54%" stop-color="gray" stop-opacity=".12"/>
            <stop offset="100%" stop-color="gray" stop-opacity=".1"/>
        </linearGradient>
        <linearGradient id="c" x1="50%" x2="50%" y1="100%" y2="0%">
            <stop offset="0%" stop-color="gray" stop-opacity=".25"/>
            <stop offset="54%" stop-color="gray" stop-opacity=".12"/>
            <stop offset="100%" stop-color="gray" stop-opacity=".1"/>
        </linearGradient>
        <linearGradient id="d" x1="58.129%" x2="41.903%" y1="99.375%" y2=".63%">
            <stop offset="0%" stop-color="gray" stop-opacity=".25"/>
            <stop offset="54%" stop-color="gray" stop-opacity=".12"/>
            <stop offset="100%" stop-color="gray" stop-opacity=".1"/>
        </linearGradient>
        <linearGradient id="e" x1="49.981%" x2="49.981%" y1="100%" y2="-.009%">
            <stop offset="0%" stop-color="gray" stop-opacity=".25"/>
            <stop offset="54%" stop-color="gray" stop-opacity=".12"/>
            <stop offset="100%" stop-color="gray" stop-opacity=".1"/>
        </linearGradient>
        <linearGradient id="f" x1="50%" x2="50%" y1="99.994%" y2="0%">
            <stop offset="0%" stop-color="gray" stop-opacity=".25"/>
            <stop offset="54%" stop-color="gray" stop-opacity=".12"/>
            <stop offset="100%" stop-color="gray" stop-opacity=".1"/>
        </linearGradient>
    </defs>
    <g fill="none" fill-rule="nonzero">
        <path fill="url(#a)" d="M-4.715 16.312h86.378v63.28H-4.715z" opacity=".5" transform="rotate(-81.42 69.974 11.343)"/>
        <path fill="#F5F5F5" d="M63.506 85.4L76.188 1.35l61.306 9.25-12.682 84.05z"/>
        <path fill="#E0E0E0" d="M79.395 38.729l43.508 6.564-.298 1.978-43.508-6.564zM78.395 44.729l43.508 6.564-.298 1.978-43.508-6.564zM104.278 20.296l22.742 3.43-.298 1.978-22.742-3.43z"/>
        <path fill="#45B0F2" d="M105.256 27.594l18.787 2.834-.299 1.978-18.787-2.834z"/>
        <path fill="#E0E0E0" d="M77.367 52.102l38.564 5.818-.298 1.978-38.564-5.818zM76.334 58.55l32.63 4.923-.298 1.977-32.63-4.923zM76.317 64.773l29.664 4.476-.298 1.978-29.664-4.476zM75.356 72.251l36.586 5.52-.298 1.978-36.586-5.52z"/>
        <path fill="#45B0F2" d="M74.228 77.967l13.843 2.089-.299 1.977-13.843-2.089z"/>
        <path fill="url(#b)" d="M17.877 10.822c.638-4.39-1.8-8.636-5.825-10.145C8.028-.833 3.535.815 1.32 4.613-.897 8.41-.22 13.302 2.936 16.3v.042c.247.335.556.616.91.826l.017-.04c.361.435 2.026 1.3 4.038 1.61h.044c1.275.2 2.69.183 4.005-.31l.038-.066c.33-.102.642-.259.924-.464l.029-.102c2.651-1.342 4.497-3.95 4.936-6.974z" opacity=".5" transform="translate(83 13)"/>
        <circle cx="92" cy="22" r="9" fill="#F5F5F5" transform="rotate(-81.42 92 22)"/>
        <path fill="#FDA57D" d="M86.598 25s-1.577-.127-1.598 3.308c.183.281.412.516.672.692L87 25.644 86.598 25zM93.728 26s2.06.415.936 3.585a3.31 3.31 0 0 1-1.089.415L93 26.461l.728-.461z"/>
        <path fill="#333" d="M87.96 19S86.51 22.13 86 21.726c0 0 4.619 6.056 10 1.695a16.594 16.594 0 0 0-1.616-3.331L87.96 19z"/>
        <circle cx="92" cy="19" r="4" fill="#333" transform="rotate(-81.42 92 19)"/>
        <path fill="#000" d="M94.569 25.998L87.427 25l-1.097 2.556s-.591 1.171-.191 1.78c.4.608 4.748 2.47 8.372 1.268a3.282 3.282 0 0 0 .454-2.195c-.18-1.29-.08-.102-.08-.102l-.316-2.309z" opacity=".1"/>
        <path fill="#000" d="M94.567 25.999L87.425 25l-1.095 2.555s-.591 1.172-.191 1.78c.4.61 4.748 2.472 8.372 1.269a3.284 3.284 0 0 0 .454-2.196c-.18-1.29-.08-.101-.08-.101l-.318-2.308z" opacity=".1"/>
        <path fill="#FDD835" d="M94.569 25.998L87.427 25l-1.097 2.556s-.591 1.171-.191 1.78c.4.608 4.748 2.47 8.372 1.268a3.282 3.282 0 0 0 .454-2.195c-.18-1.29-.08-.102-.08-.102l-.316-2.309z"/>
        <path fill="#000" d="M89.236 22.868l1.977.298-.311 2.059c-.076.5-.49.854-.924.789l-.404-.061c-.434-.066-.725-.525-.65-1.027l.311-2.058h.001z" opacity=".1"/>
        <path fill="#FDA57D" d="M89.235 22.868l1.978.298-.311 2.059c-.076.5-.49.854-.924.789l-.404-.061c-.434-.066-.725-.525-.65-1.027l.311-2.058z"/>
        <path fill="#000" d="M89 23.395c.597.558 1.294.738 1.964.507l.036-.405L89.035 23l-.035.395z" opacity=".1"/>
        <circle cx="91" cy="21" r="4" fill="#FDA57D" transform="rotate(-81.42 91 21)"/>
        <path fill="#333" d="M88 18.995L96 20s-.196-2.77-3.25-2.985c-3.055-.215-4.75 1.98-4.75 1.98z"/>
        <circle cx="87.5" cy="19.5" r="1" fill="#FDA57D" transform="rotate(-81.42 87.5 19.5)"/>
        <circle cx="95.5" cy="20.5" r="1" fill="#FDA57D" transform="rotate(-81.42 95.5 20.5)"/>
        <path fill="#000" d="M88 18.995L96 20s-.196-2.77-3.25-2.985c-3.055-.215-4.75 1.98-4.75 1.98z" opacity=".1"/>
        <path fill="url(#c)" d="M6.66 4.629h62.69v87.72H6.66z" opacity=".5" transform="rotate(-9.181 112.737 54.49)"/>
        <path fill="#F5F5F5" d="M1.533 23.575l61.183-10.03 13.751 83.88-61.183 10.03z"/>
        <path fill="#E0E0E0" d="M14.128 57.572l43.42-7.118.324 1.974-43.42 7.118zM16.128 64.572l43.42-7.118.324 1.974-43.42 7.118zM32.99 32.874l22.697-3.721.323 1.973-22.697 3.721z"/>
        <path fill="#45B0F2" d="M34.963 38.55l18.75-3.074.324 1.974-18.75 3.074z"/>
        <path fill="#E0E0E0" d="M17.095 71.168l38.486-6.31.324 1.974-38.486 6.31zM18.056 77.682l32.565-5.338.323 1.974-32.565 5.338zM19.036 84.44l29.605-4.853.323 1.973-29.605 4.853zM20.082 91.006l36.513-5.986.323 1.974-36.513 5.986z"/>
        <path fill="#45B0F2" d="M21.93 98.146l13.816-2.265.324 1.973-13.816 2.265z"/>
        <path fill="url(#d)" d="M18.844 7.964C18.118 3.575 14.368.305 9.886.15 5.403-.004 1.434 3 .402 7.329c-1.031 4.328 1.162 8.776 5.24 10.628l.013.04c.35.239.746.406 1.162.493v-.044c.496.3 2.425.594 4.528.246h.045c1.334-.214 2.74-.684 3.898-1.573 0 0 0-.025.016-.074a3.34 3.34 0 0 0 .778-.737v-.106a9.272 9.272 0 0 0 2.762-8.238z" opacity=".5" transform="translate(12 30)"/>
        <circle cx="21" cy="39" r="9" fill="#F5F5F5" transform="rotate(-9.31 21 39)"/>
        <path fill="#4D8AF0" d="M18.257 43s-2.074.437-.894 3.597c.335.195.711.332 1.109.403L19 43.453 18.257 43zM24.39 42.001s1.558-.153 1.61 3.3c-.178.282-.4.52-.655.699L24 42.65l.39-.649z"/>
        <circle cx="21" cy="36" r="4" fill="#333" transform="rotate(-9.31 21 36)"/>
        <path fill="#4D8AF0" d="M25.442 42l-7.219 1.261-.2 3.21s-.169 1.5.412 2.042c.58.543 5.407 1.168 8.487-1.383a4.345 4.345 0 0 0-.298-2.593c-.606-1.375-.113-.087-.113-.087L25.44 42z"/>
        <path fill="#4D8AF0" d="M25.442 42l-7.219 1.261-.2 3.21s-.169 1.5.412 2.042c.58.543 5.407 1.168 8.487-1.383a4.345 4.345 0 0 0-.298-2.593c-.606-1.375-.113-.087-.113-.087L25.44 42z"/>
        <path fill="#4D8AF0" d="M25.442 42l-7.219 1.26-.2 3.212s-.169 1.5.412 2.042c.58.542 5.407 1.167 8.487-1.383a4.339 4.339 0 0 0-.298-2.59c-.606-1.374-.113-.087-.113-.087L25.44 42z"/>
        <path fill="#000" d="M19.779 40.262l2.959-.485.34 2.079c.08.487-.368.966-1 1.07l-.67.11c-.633.103-1.21-.208-1.29-.695l-.34-2.079z" opacity=".1"/>
        <path fill="#FDA57D" d="M19.779 40.262l2.959-.485.34 2.079c.08.487-.368.966-1 1.07l-.67.11c-.633.103-1.21-.208-1.29-.695l-.34-2.079z"/>
        <path fill="#000" d="M20.058 40.91A3.978 3.978 0 0 0 23 40.396L22.94 40l-2.94.527.058.384z" opacity=".1"/>
        <circle cx="21" cy="37" r="4" fill="#FDA57D" transform="rotate(-9.31 21 37)"/>
        <path fill="#000" d="M17 35l8-1.027s-1.213-2.443-4.202-1.892C17.808 32.63 17 35 17 35z" opacity=".1"/>
        <path fill="#333" d="M17 35l8-1.027s-1.212-2.443-4.199-1.892C17.815 32.63 17 35 17 35z"/>
        <circle cx="17.5" cy="36.5" r="1" fill="#FDA57D" transform="rotate(-9.181 17.5 36.5)"/>
        <circle cx="24.5" cy="35.5" r="1" fill="#FDA57D" transform="rotate(-9.31 24.5 35.5)"/>
        <path fill="url(#c)" d="M.1.075h62.867v86.9H.1z" opacity=".5" transform="translate(45 26)"/>
        <path fill="#FFF" d="M45 26h62v85H45z"/>
        <path fill="url(#e)" d="M.037 9.495c0-4.471 3.183-8.32 7.605-9.197 4.421-.876 8.852 1.465 10.585 5.593 1.733 4.128.287 8.895-3.455 11.39v.04A3.242 3.242 0 0 1 13.7 18l-.013-.04c-.442.376-2.307.98-4.45.973H9.19c-1.357 0-2.829-.238-4.125-.933 0 0-.012-.025-.03-.07a3.37 3.37 0 0 1-.892-.607l-.014-.106a9.348 9.348 0 0 1-4.092-7.72z" opacity=".5" transform="translate(54 36)"/>
        <circle cx="63.5" cy="46.5" r="9.5" fill="#F5F5F5"/>
        <path fill="#BE7C5E" d="M59.44 50s-1.846.147-1.358 3.451c.253.238.552.425.88.549L60 50.554 59.44 50zM66.557 50s1.85.147 1.36 3.451a2.666 2.666 0 0 1-.88.549L66 50.543l.557-.543z"/>
        <path fill="#333" d="M60.575 43s-.162.48-.393 1.033c-.502 1.211.071 5.865 1.274 6.362 1.349.557 3.123.913 4.966.232 1.601-.591 2.095-5.888.963-7.18A8.091 8.091 0 0 0 66.97 43h-6.394z"/>
        <circle cx="64" cy="43" r="4" fill="#333"/>
        <path fill="#000" d="M66.075 50h-7.247l-.677 2.968s-.398 1.374.097 1.979c.494.604 5.11 1.979 8.503.098.295-.791.329-1.66.096-2.473-.387-1.385-.096-.099-.096-.099L66.075 50z" opacity=".1"/>
        <path fill="#000" d="M66.079 50h-7.25l-.678 2.968s-.398 1.374.097 1.979c.494.604 5.11 1.979 8.503.098.295-.791.329-1.66.096-2.473-.387-1.385-.096-.099-.096-.099L66.079 50z" opacity=".1"/>
        <path fill="#3AD29F" d="M66.075 50h-7.247l-.677 2.968s-.398 1.374.097 1.979c.494.604 5.11 1.979 8.503.098.295-.791.329-1.66.096-2.473-.387-1.385-.096-.099-.096-.099L66.075 50z"/>
        <path fill="#000" d="M62.002 47H65v2.126c0 .483-.508.874-1.136.874h-.728c-.302 0-.59-.092-.803-.256-.213-.164-.333-.386-.333-.618V47h.002z" opacity=".1"/>
        <path fill="#BE7C5E" d="M62.002 47H65v2.126c0 .483-.508.874-1.136.874h-.728c-.302 0-.59-.092-.803-.256-.213-.164-.333-.386-.333-.618V47h.002z"/>
        <path fill="#000" d="M62 47.578c.968.563 2.032.563 3 0V47h-3v.578z" opacity=".1"/>
        <circle cx="64" cy="44" r="4" fill="#BE7C5E"/>
        <path fill="#333" d="M60 43h8s-.683-3.196-3.707-2.99C61.27 40.214 60 43 60 43z"/>
        <circle cx="58.5" cy="43.5" r="1" fill="#BE7C5E"/>
        <circle cx="67.5" cy="43.5" r="1" fill="#BE7C5E"/>
        <path fill="#000" d="M60 43h8s-.683-3.196-3.707-2.99C61.27 40.214 60 43 60 43z" opacity=".1"/>
        <path fill="#E0E0E0" d="M54 64h44v2H54zM54 71h44v2H54zM75 42h23v2H75z"/>
        <path fill="#45B0F2" d="M77 50h19v2H77z"/>
        <path fill="#E0E0E0" d="M54 77h39v2H54zM54 84h33v2H54zM54 90h30v2H54zM54 97h37v2H54z"/>
        <path fill="#45B0F2" d="M54 105h14v2H54z"/>
        <ellipse cx="13.011" cy="13.009" fill="url(#f)" opacity=".5" rx="12.907" ry="12.983" transform="translate(90 93)"/>
        <circle cx="102.5" cy="105.5" r="12.5" fill="#69F0AE"/>
        <path fill="#FFF" d="M97.875 103.6l4.5 4.4 6.374-10 2.251 2-8.626 12L96 104.4z"/>
    </g>
</svg>
