<svg xmlns="http://www.w3.org/2000/svg" width="162" height="111" viewBox="0 0 162 111">
    <defs>
        <linearGradient id="a" x1="50.002%" x2="50.002%" y1="100%" y2="-.002%">
            <stop offset="0%" stop-color="gray" stop-opacity=".25"/>
            <stop offset="54%" stop-color="gray" stop-opacity=".12"/>
            <stop offset="100%" stop-color="gray" stop-opacity=".1"/>
        </linearGradient>
        <linearGradient id="b" x1="50.02%" x2="50.02%" y1="99.99%" y2=".002%">
            <stop offset="0%" stop-color="gray" stop-opacity=".25"/>
            <stop offset="54%" stop-color="gray" stop-opacity=".12"/>
            <stop offset="100%" stop-color="gray" stop-opacity=".1"/>
        </linearGradient>
    </defs>
    <g fill="none" fill-rule="evenodd">
        <path fill="#45B0F2" fill-rule="nonzero" d="M15.789 84.561c-.692 1.498.298 3.115-.045 4.662-.434 1.952-2.919 3.47-5.595 4.44-2.677.97-5.666 1.558-8.275 2.603-1.128.45-2.305 1.281-1.718 2.046.203.265.583.45.956.624 7.6 3.54 16.992 5.462 26.377 5.4 9.927-.066 19.647-2.277 29.566-2.023 12.791.325 25.164 4.727 37.814 3.458 5.37-.542 10.355-2.077 15.584-3.037 7.69-1.41 15.778-1.551 23.742-2.015 5.98-.348 12.814-1.25 15.671-4.644 2.066-2.452 1.2-5.692-1.711-7.77-2.91-2.077-7.56-2.965-11.854-2.561-2.31.216-4.604.777-6.913.554-1.34-.13-2.578-.517-3.801-.898-9.461-2.96-19.262-5.914-29.764-6.343-17.081-.704-32.914 5.294-49.555 7.889-2.592.403-5.405.714-7.853.037-2.578-.714-4.27-2.4-6.853-3.111-1.227-.339-2.593-.436-3.799-.804-3.313-1.012-1.772-2.402-6.371-1.464-2.403.495-4.83 1.287-5.603 2.957z" opacity=".1"/>
        <path fill="#45B0F2" fill-rule="nonzero" d="M17.42 34s8.959 9.013 3.904 22.387C16.269 69.76 30 92 30 92s-.148-.021-.42-.07C11.173 88.662 2.03 67.493 12.26 51.77c3.804-5.853 6.927-12.71 5.16-17.77z"/>
        <path fill="#000" fill-rule="nonzero" d="M17.42 34s8.959 9.013 3.904 22.387C16.269 69.76 30 92 30 92s-.148-.021-.42-.07C11.173 88.662 2.03 67.493 12.26 51.77c3.804-5.853 6.927-12.71 5.16-17.77z" opacity=".1"/>
        <path stroke="#535461" d="M18.125 34s5.18 11.048 0 20.06C12.945 63.075 17.236 88.367 31 92"/>
        <path fill="#45B0F2" fill-rule="nonzero" d="M2 70.111s10.286-1.62 11.223 7.5C14.161 86.728 33 87.993 33 87.993s-.123.083-.354.232c-15.554 10.1-30.425 6.435-28.184-6.98.834-4.99.765-9.996-2.462-11.135z"/>
        <path fill="#F5F5F5" fill-rule="nonzero" d="M2 70.111s10.286-1.62 11.223 7.5C14.161 86.728 33 87.993 33 87.993s-.123.083-.354.232c-15.554 10.1-30.425 6.435-28.184-6.98.834-4.99.765-9.996-2.462-11.135z" opacity=".2"/>
        <path stroke="#535461" d="M2 70s7.984 1.787 7.328 9.19C8.67 86.595 21.183 95.469 33 88.435"/>
        <path fill="#45B0F2" fill-rule="nonzero" d="M109 91H25V38h10.743l4.42 5.514H109z"/>
        <path fill="#000" fill-rule="nonzero" d="M109 91H25V38h10.743l4.42 5.514H109z" opacity=".1"/>
        <path fill="#F1F1F4" fill-rule="nonzero" d="M40.478 30.68l37.615-13.605L99.522 76.32 61.907 89.925z"/>
        <path fill="#FFF" fill-rule="nonzero" d="M47.818 33.96l10.344-3.741 1.02 2.82-10.344 3.742zM52.392 40.262l23.544-8.407.672 1.883-23.544 8.407zM54.392 45.262l23.544-8.407.672 1.883-23.544 8.407zM55.392 50.262l23.544-8.407.672 1.883-23.544 8.407zM57.392 55.262l23.544-8.407.672 1.883-23.544 8.407zM59.392 60.262l23.544-8.407.672 1.883-23.544 8.407zM61.392 65.262l23.544-8.407.672 1.883-23.544 8.407zM83.166 67.184l5.65-2.018 2.018 5.65-5.65 2.018z"/>
        <path fill="url(#a)" fill-rule="nonzero" d="M29 22h42v65H29z" transform="rotate(-59.28 50 54.5)"/>
        <path fill="#F1F1F4" fill-rule="nonzero" d="M12.703 55.602l20.434-34.387 54.16 32.183-20.434 34.387z"/>
        <path fill="#FFF" fill-rule="nonzero" d="M20.4 54.462l5.62-9.456 2.58 1.532-5.62 9.456zM28.255 56.235l12.77-21.492 1.72 1.022-12.77 21.492zM32.255 58.235l12.77-21.492 1.72 1.022-12.77 21.492zM37.264 61.242l12.752-21.504 1.72 1.02-12.752 21.504zM41.255 64.235l12.77-21.492 1.72 1.022-12.77 21.492zM46.255 66.235l12.77-21.492 1.72 1.022-12.77 21.492zM51.255 69.235l12.77-21.492 1.72 1.022-12.77 21.492zM68.89 56.05l3.06-5.16 5.16 3.06-3.06 5.16z"/>
        <path fill="url(#b)" fill-rule="nonzero" d="M154.996 20.57c0-.08-.008-.156-.024-.228a2.683 2.683 0 0 1-.042-.25 7.363 7.363 0 0 0-.164-.702 6.056 6.056 0 0 0-1.216-2.312l-.097-.11a5.877 5.877 0 0 0-.193-.203 6.625 6.625 0 0 0-.368-.33 3.618 3.618 0 0 0-.324-.238c-.1-.064-.136-.089-.192-.123a1.09 1.09 0 0 0-.454-.147l-1-.097-1.35-.133-4.876-1.882-.193.068c-.142-.39-.263-.789-.361-1.193.148-.063.28-.159.385-.28a.877.877 0 0 0 .266-.338c.123-.282-.112-.884-.065-1.227.078-.552.366-1.086.601-1.586.502-1.074.868-2.238.81-3.418-.058-1.18-.601-2.376-1.604-3.036-.518-.341-1.133-.524-1.666-.835-.42-.243-.789-.558-1.189-.832a6.868 6.868 0 0 0-6.726-.477c-1.014.497-1.878 1.238-2.835 1.832-.958.594-2.085 1.053-3.204.877a.708.708 0 0 0-.034.138l-.094-.012c-.193.523.28 1.038.716 1.395.826.677 1.764 1.353 2.842 1.376.416.01.857-.078 1.236.092.082.038.16.086.23.143a5.306 5.306 0 0 0 1.686 5.314l-2.491-.89s-.104.054-.266.154l-3.46-2.287s-6.937-2.51-8.864 1.38c-1.927 3.891 8.35 1.883 8.35 1.883l2.2 1.2c-.073.452.012.914.24 1.31l5.993 3.68c-1.211.37-3.202.971-3.563.971-.513 0-1.927.502-2.826 2.51-.899 2.009-4.11 11.8-6.937 13.433-2.826 1.633-10.277 12.552-10.277 12.552l.034.086a6.294 6.294 0 0 0-.39.115c-1.864.602-3.118 1.873-3.874 2.9a1.23 1.23 0 0 0 .868 1.942c2.94.37 4.547-.97 5.32-1.994a5.74 5.74 0 0 0 .14-.194c.23.098.489.11.726.033l3.597-2.888s-2.814 2.752-1.164 5.259l-.125.173a39.85 39.85 0 0 0-6.033 13.021s-1.541 1.133-1.67 5.648c-.127 4.516-1.669 11.8-1.669 11.8s-1.028 8.662-.385 11.298c0 0 .074.105.21.266-.048.056-.1.118-.162.18-.56.603-1.572 1.433-2.753 1.186-1.8-.378-1.8 2.76.77 3.013 1.656.162 4.906.897 7.013 1.398a1.475 1.475 0 0 0 1.832-1.565c-.126-1.125-.355-2.486-.77-3.455a5.825 5.825 0 0 0-.08-.176c.076-.07.15-.143.227-.22 0 0 0-5.524.898-7.03 0 0 2.441-11.423 2.313-14.31-.1-2.266 6.33-11.058 9.131-14.773l-.023-.141c.716-.949 1.17-1.531 1.17-1.531l2.183 13.682s1.048 3.013 2.332 4.641c0 0 5.524 10.42 6.165 13.682.486 2.475 1.49 3.938 1.944 4.501-.054.053-.109.107-.162.162-.585.532-1.448 1.066-2.43.862-1.792-.378-1.792 2.76.778 3.01 1.655.162 4.906.897 7.013 1.399a1.475 1.475 0 0 0 1.831-1.565c-.145-1.306-.432-2.931-.986-3.884a2.757 2.757 0 0 0-.146-.228c.196-.078.37-.2.51-.358 0 0-3.342-7.916-3.342-10.05 0 0-1.414-8.16-6.166-11.167 0 0 .45-10.204 1.803-15.885.033-.14.067-.278.102-.412a38.65 38.65 0 0 0 3.747-.776l.128-3.766.648 3.014 7.188-4.397s-.064-.792-.185-2.006a131.36 131.36 0 0 0-.47-4.033 75.703 75.703 0 0 0-.509-3.282 48.444 48.444 0 0 0-.28-1.424 49.17 49.17 0 0 0-.202-.875l-.052-.208a33.76 33.76 0 0 0-.107-.398 7.144 7.144 0 0 1-.26-1.646 8.497 8.497 0 0 1 0-.663c.008-.227.03-.447.064-.66a7.428 7.428 0 0 1 .688-2.222c.234-.475.487-.99.74-1.532a182.693 182.693 0 0 0 .784-1.691c1.25-2.767 2.483-5.852 2.814-7.876.034-.214.06-.415.073-.604.015-.176.019-.352.011-.528z"/>
        <path fill="#F7BBC3" fill-rule="nonzero" d="M133 12.43l-4.215-2.688s-6.694-2.337-8.553 1.285c-1.859 3.622 8.056 1.753 8.056 1.753l4.214 2.22.498-2.57z"/>
        <path fill="#F1F1F4" fill-rule="nonzero" d="M86.687 34.488L108.137.727l53.176 33.785-21.45 33.761z"/>
        <path fill="#FFF" fill-rule="nonzero" d="M95.284 33.338l5.9-9.285 2.532 1.61-5.9 9.284zM102.953 36.014l13.406-21.1 1.688 1.072-13.406 21.1zM106.953 38.014l13.406-21.1 1.688 1.072-13.406 21.1zM111.953 41.014l13.406-21.1 1.688 1.072-13.406 21.1zM115.9 44.974l13.518-21.03 1.683 1.082-13.52 21.03zM120.953 47.014l13.406-21.1 1.688 1.072-13.406 21.1zM124.9 49.974l13.518-21.03 1.683 1.082-13.52 21.03zM143.86 36.923l3.217-5.064 5.064 3.218-3.218 5.064z"/>
        <path fill="#B77983" fill-rule="nonzero" d="M146.14 99.955c-2.128-.533-5.412-1.312-7.083-1.484-2.596-.266-2.596-3.596-.78-3.196.986.216 1.856-.347 2.448-.916.181-.178.35-.367.508-.567.216-.265.513-.448.843-.52.973-.217 2.998-.546 4.245.143.288.183.522.444.674.755.56 1.02.844 2.743.997 4.13.05.499-.139.992-.507 1.321-.369.33-.87.454-1.345.334zM115.137 100.954c-2.128-.533-5.41-1.313-7.08-1.484-2.595-.267-2.595-3.598-.78-3.198 1.18.263 2.21-.62 2.775-1.258.07-.078.132-.152.186-.221.216-.266.513-.45.843-.52.973-.218 2.997-.548 4.243.142.364.203.656.646.889 1.213.42 1.028.65 2.473.779 3.667.051.5-.138.995-.507 1.326-.37.33-.873.455-1.348.333z"/>
        <path fill="#000" fill-rule="nonzero" d="M115 95.6c-3.019 3.227-5.607-.06-6-.602a4.49 4.49 0 0 0 .18-.218c.211-.262.5-.442.822-.512.949-.214 2.922-.538 4.137.14.35.191.634.628.861 1.192zM147 94.226c-1.291.992-5.61.747-5.61.747a4.748 4.748 0 0 1-.39-.547 5.98 5.98 0 0 0 .486-.592c.207-.28.491-.472.807-.547.931-.23 2.87-.576 4.063.15.275.19.498.464.644.789z" opacity=".1"/>
        <path fill="#8499F0" fill-rule="nonzero" d="M147 93.791c-.88 1.12-5.901.872-5.901.872s-1.506-1.492-2.135-4.727c-.628-3.235-6.026-13.556-6.026-13.556-1.255-1.616-2.26-4.602-2.26-4.602l-2.135-13.556s-10.296 13.431-10.17 16.293c.126 2.86-2.26 14.175-2.26 14.175-.88 1.492-.88 6.964-.88 6.964-3.264 3.357-6.026-.623-6.026-.623-.629-2.612.377-11.192.377-11.192s1.506-7.213 1.631-11.69c.126-4.479 1.632-5.597 1.632-5.597a39.713 39.713 0 0 1 5.896-12.902c.76-1.076 1.26-1.65 1.26-1.65l20.34 2.363c-.326.647-.618 1.573-.874 2.67-1.322 5.626-1.761 15.737-1.761 15.737 4.646 2.988 6.027 11.07 6.027 11.07 0 2.115 3.265 9.951 3.265 9.951z"/>
        <g fill="#000" fill-rule="nonzero" opacity=".05">
            <path d="M127.416 59.865l-.258-1.654s-10.176 13.402-10.052 16.257c.125 2.855-2.232 14.145-2.232 14.145-.87 1.489-.87 6.948-.87 6.948-.675.702-1.33 1.083-1.935 1.245.978.257 2.166.07 3.433-1.245 0 0 0-5.46.869-6.948 0 0 2.358-11.29 2.234-14.147-.105-2.232 6.108-10.927 8.811-14.601z"/>
            <path d="M143.663 83.774s-1.365-8.064-5.957-11.043c0 0 .434-10.087 1.74-15.704.256-1.093.541-2.016.865-2.662L120.21 52s-.047.055-.133.161l18.747 2.199c-.322.645-.611 1.569-.864 2.663-1.307 5.614-1.74 15.703-1.74 15.703 4.59 2.984 5.954 11.048 5.954 11.048 0 2.11 3.226 9.928 3.226 9.928-.511.658-2.447.842-3.95.882 1.192.03 4.72.042 5.439-.882.001.001-3.226-7.818-3.226-9.928z"/>
        </g>
        <path fill="#F7BBC3" fill-rule="nonzero" d="M117 50.04a4.286 4.286 0 0 1-.607.994c-.77.972-2.368 2.259-5.296 1.906a1.252 1.252 0 0 1-.992-.697 1.12 1.12 0 0 1 .127-1.157c.752-.983 1.995-2.198 3.856-2.774A7.344 7.344 0 0 1 115.72 48l1.28 2.04z"/>
        <path fill="#D39999" fill-rule="nonzero" d="M143 15.761L133.005 12s-2.867 1.538-1.744 3.718L140.98 22l2.02-6.239z"/>
        <path fill="#000" fill-rule="nonzero" d="M143 15.761L133.005 12s-2.867 1.538-1.744 3.718L140.98 22l2.02-6.239z" opacity=".1"/>
        <path fill="#F7BBC3" fill-rule="nonzero" d="M143.178 9.241s-.12 5.747 2.408 7.703C148.114 18.9 138.243 20 138.243 20s1.565-5.869 0-8.925c-1.564-3.056 4.935-1.834 4.935-1.834z"/>
        <path fill="#000" fill-rule="nonzero" d="M140 54.173c-.317.595-.601 1.447-.85 2.455-11.806 1.688-20.023-2.913-20.023-2.913a5.745 5.745 0 0 1-.127-.197A20.642 20.642 0 0 1 120.225 52L140 54.173zM117 50.018c-.16.35-.37.68-.625.982-1.22-.182-2.195-2.282-2.375-2.692a7.853 7.853 0 0 1 1.682-.308L117 50.018z" opacity=".1"/>
        <path fill="#D39999" fill-rule="nonzero" d="M144.031 15l-4.468 1.602-1.86 2.465s-3.848 1.232-4.345 1.232c-.496 0-1.86.494-2.73 2.466-.87 1.972-3.97 11.582-6.7 13.184C121.197 37.55 114 48.284 114 48.284s1.24 3.327 2.73 2.835l3.475-2.835s-2.73 2.712-1.116 5.176c0 0 10.176 6.04 24.194 2.342l.124-3.698.621 2.958 6.96-4.32s-.623-7.955-1.744-12.004a7.27 7.27 0 0 1 .484-5.1c1.802-3.73 4.582-9.959 4.244-12.23-.4-2.677-1.923-3.845-2.504-4.19a1.042 1.042 0 0 0-.437-.145l-2.27-.226L144.03 15z"/>
        <path fill="#000" fill-rule="nonzero" d="M137 27s-2.56 11.43-5.375 13.273C128.81 42.117 121.256 48.016 121 49" opacity=".05"/>
        <path fill="#D39999" fill-rule="nonzero" d="M136 27s-2.56 11.427-5.375 13.27S120.256 48.011 120 49"/>
        <path fill="#000" fill-rule="nonzero" d="M138 18s8.53-2.556 11-1.889" opacity=".1"/>
        <g fill="#000" fill-rule="nonzero" opacity=".05">
            <path d="M148.86 32.578c1.718-3.71 4.37-9.905 4.048-12.165-.382-2.663-1.834-3.825-2.388-4.17a.966.966 0 0 0-.417-.143l-.923-.095a.954.954 0 0 1 .274.116c.554.35 2 1.506 2.388 4.169.323 2.258-2.33 8.456-4.048 12.166a7.515 7.515 0 0 0-.462 5.074c1.077 4.029 1.663 11.943 1.663 11.943l-5.707 3.695.144.719 6.642-4.293s-.594-7.914-1.663-11.943a7.515 7.515 0 0 1 .449-5.073zM146.87 15.755l1.027.105-4.459-1.823-.4.15z"/>
        </g>
        <path fill="#000" fill-rule="nonzero" d="M135 39s3.875-2.429 5.125-1.857C141.375 37.715 146 37 146 37M142.594 11.344c-.133-1.286.406-1.09.406-1.09s-6.277-1.283-4.765 1.924c.378.804.567 1.791.638 2.822h.059c1.755.002 2.772-2.152 3.662-3.656z" opacity=".05"/>
        <circle cx="138.5" cy="8.5" r="5.5" fill="#F7BBC3" fill-rule="nonzero"/>
        <path fill="#000" fill-rule="nonzero" d="M144.2 10.467c.493-1.096.854-2.287.793-3.5-.06-1.214-.591-2.429-1.577-3.102-.509-.349-1.11-.535-1.642-.852-.412-.248-.777-.57-1.17-.85a6.542 6.542 0 0 0-6.616-.488c-.997.5-1.848 1.265-2.793 1.871-.944.607-2.05 1.076-3.152.896-.189.533.276 1.06.705 1.425.813.692 1.735 1.382 2.792 1.405.411.01.843-.08 1.216.095.251.14.464.341.62.585a11.5 11.5 0 0 1 1.29 2.219c.142.321.286.667.578.862.493.316 1.122.053 1.7.03.9-.035 1.709.538 2.376 1.155.667.616 1.3 1.317 2.135 1.642.628.241 1.883.233 2.203-.529.12-.286-.11-.902-.063-1.253.09-.555.375-1.099.605-1.61z" opacity=".1"/>
        <path fill="#9B6C7A" fill-rule="nonzero" d="M145.2 10.467c.493-1.096.854-2.287.793-3.5-.06-1.214-.591-2.429-1.577-3.102-.509-.349-1.11-.535-1.642-.852-.412-.248-.777-.57-1.17-.85a6.542 6.542 0 0 0-6.616-.488c-.997.5-1.848 1.265-2.793 1.871-.944.607-2.05 1.076-3.152.896-.189.533.276 1.06.705 1.425.813.692 1.735 1.382 2.792 1.405.411.01.843-.08 1.216.095.251.14.464.341.62.585a11.5 11.5 0 0 1 1.29 2.219c.142.321.286.667.578.862.493.316 1.122.053 1.7.03.9-.035 1.709.538 2.376 1.155.667.616 1.3 1.317 2.135 1.642.628.241 1.883.233 2.203-.529.12-.286-.11-.902-.063-1.253.09-.554.375-1.099.605-1.61z"/>
        <path fill="#45B0F2" fill-rule="nonzero" d="M109 94H25V41h10.743l4.42 5.514H109z"/>
        <path fill="#A8A8A8" fill-rule="nonzero" d="M29 98.461s-3.567-.705-4.518-1.645c-.952-.94-5.231-2.585-5.707-1.406-.476 1.18-6.42 5.17-2.37 5.877 4.048.706 9.51.937 10.7.468 1.19-.468 1.895-3.294 1.895-3.294z"/>
        <path fill="#000" fill-rule="nonzero" d="M16.395 101.71c4.044.791 9.513 1.053 10.703.526.906-.402 1.535-2.335 1.783-3.236l.119.028s-.713 3.171-1.897 3.698c-1.184.527-6.66.263-10.703-.527-1.167-.228-1.5-.765-1.375-1.447.094.446.5.787 1.37.957z" opacity=".2"/>
        <path fill="#A8A8A8" fill-rule="nonzero" d="M105 105.443s-5.602-1.109-7.097-2.586c-1.495-1.477-8.217-4.063-8.963-2.216-.747 1.848-10.088 8.127-3.743 9.236 6.346 1.109 14.94 1.477 16.808.739 1.867-.74 2.995-5.173 2.995-5.173z"/>
        <path fill="#000" fill-rule="nonzero" d="M85.202 109.058c6.346 1.19 14.94 1.584 16.809.792 1.422-.604 2.411-3.502 2.802-4.85l.187.041s-1.121 4.747-2.992 5.544c-1.872.798-10.46.397-16.81-.792-1.833-.345-2.357-1.149-2.158-2.167.159.665.797 1.177 2.162 1.432z" opacity=".2"/>
        <path fill="#000" fill-rule="nonzero" d="M57 65h19v3H57z" opacity=".1"/>
    </g>
</svg>
