<svg xmlns="http://www.w3.org/2000/svg" xmlns:xlink="http://www.w3.org/1999/xlink" width="96" height="96" viewBox="0 0 96 96">
    <defs>
        <circle id="a" cx="48" cy="48" r="48"/>
    </defs>
    <g fill="none" fill-rule="evenodd">
        <mask id="b" fill="#fff">
            <use xlink:href="#a"/>
        </mask>
        <use fill="#9FC2F8" xlink:href="#a"/>
        <g mask="url(#b)">
            <path fill="#E1E1E1" d="M36.973 23.499L76.385 34.8 65.084 74.212 25.672 62.91z"/>
            <path fill="#FFF" d="M34.916 19.788L74.328 31.09 63.027 70.501 23.615 59.2z"/>
            <path fill="#D8D8D8" d="M29.53 49.453l24.032 6.89-.55 1.923-24.032-6.89zM30.91 44.647l34.605 9.923-.552 1.922-34.605-9.923zM32.287 39.84l34.606 9.923-.552 1.923-34.605-9.923zM49.463 34.362l20.186 5.789-.827 2.883-20.186-5.788zM50.84 29.556l20.187 5.788-.827 2.884-20.186-5.788zM36.973 23.499l12.497 3.583-3.584 12.497-12.496-3.584z"/>
        </g>
        <path fill="#FFF3D4" d="M73.899 43.647l-1.026 3.787c-2.309.987-4.028 1.234-5.158.74-1.695-.74-6.971-.469-5.786 2.342.79 1.873 1.977 3.412 3.561 4.615 6.275 3.077 16.871 3.077 31.79 0l1.57-10.923c-10.021 3.595-16.075 5.154-18.159 4.676-.869-1.95-3.133-3.696-6.792-5.237z" mask="url(#b)"/>
        <path fill="#AFA17E" d="M6.48 17.492c6.713 15.263 12.973 24.52 18.78 27.768 5.808 3.25 10.173 3.25 13.095 0 .712-3.106-.83-5.671-4.628-7.697-.334-.178-1.348-1.23-3.043-3.154l1.052-3.445c-.78-1.248-3.256-1.61-4.168-1.312C22.42 20.7 17.11 7.612 17.11 7.612L6.48 17.492z" mask="url(#b)"/>
    </g>
</svg>
