<svg xmlns="http://www.w3.org/2000/svg" width="147" height="125" viewBox="0 0 147 125">
    <defs>
        <linearGradient id="a" x1="50%" x2="50%" y1="100%" y2="-.003%">
            <stop offset="0%" stop-color="gray" stop-opacity=".25"/>
            <stop offset="54%" stop-color="gray" stop-opacity=".12"/>
            <stop offset="100%" stop-color="gray" stop-opacity=".1"/>
        </linearGradient>
    </defs>
    <g fill="none" fill-rule="evenodd">
        <path fill="#45B0F2" fill-rule="nonzero" d="M87.43 2.397c-1.353 1.125-1.958 2.908-2.486 4.6a293.105 293.105 0 0 0-3.32 11.456c-1.5 5.585-2.864 11.293-5.612 16.373-2.748 5.081-6.753 9.292-10.713 13.453L51.03 63.262c-4.409 4.63-9.112 9.976-9.028 16.41.072 5.581 3.924 10.533 8.638 13.414 4.713 2.882 10.221 4.062 15.612 5.196 2.737.576 5.642 1.141 8.267.183 3.152-1.148 5.207-4.226 8.09-5.957 5.17-3.11 11.72-1.36 17.513.27 5.792 1.63 12.617 2.867 17.315-.931 6.816-5.513 3.878-16.619 6.922-24.897 2.889-7.857 10.877-12.375 16.12-18.862 11.712-14.487 6.591-34.61-9.572-42.733-5.297-2.654-10.518-2.517-16.262-2.936-7.163-.52-21.042-5.158-27.216-.022z" opacity=".1"/>
        <g opacity=".5">
            <path fill="#45B0F2" fill-rule="nonzero" d="M41.99 84.765s-23.68-12.138-13.56-39.25C38.55 18.404 1.91 9 1.91 9s-7.178 26.399 6.307 43.978C21.7 70.558 26.903 99.744 41.99 84.765z"/>
            <path stroke="#FFF" d="M1.91 9s9.99 17.535 15.032 40.344c5.041 22.81 13.25 41.632 24.926 34.991"/>
        </g>
        <g opacity=".5">
            <path fill="#45B0F2" fill-rule="nonzero" d="M37.143 90.181s-9.512-13.789 3.108-27.08c12.62-13.292-4.584-29.056-4.584-29.056s-10.85 13.686-8.26 27.873c2.591 14.188-2.338 32.964 9.736 28.263z"/>
            <path stroke="#FFF" d="M35.669 34.045s.72 13.192-2.607 28.14c-3.326 14.947-3.906 28.41 4.129 27.71"/>
        </g>
        <path fill="#45B0F2" fill-rule="nonzero" d="M9.104 111.471c.169 1.059.771 1.865 1.343 2.604l6.804 8.779c.547.706 1.135 1.44 1.87 1.632 1.536.415 2.771-1.592 4.084-2.766 4.668-4.175 11.046 2.18 16.322-.25 2.11-.972 3.82-3.282 5.971-4.064 5.696-2.078 10.523 7.103 16.404 7.57 1.93.149 3.826-.659 5.67-1.462l12.308-5.361c.855-.373 1.724-.743 2.626-.765 1.514-.027 2.924.965 4.35 1.679 5.736 2.877 12.106 1.324 17.998-.855 5.893-2.18 11.828-4.983 17.919-4.518 1.585.121 3.68.019 4.113-2.098.258-1.259-3.226.061-4.033-.617-.806-.679 1.113-3.51.172-3.63-5.474-.697-11.051-.717-16.402 1.04-2.77.908-5.497 2.291-8.343 2.575-2.966.297-5.917-.618-8.83-1.449-7.376-2.105-14.878-3.71-22.408-3.384-13.384.593-26.567 7.312-39.884 5.364a33.538 33.538 0 0 1-11.29-3.847c-1.796-.987-1.716 2.508-3.55 3.685-.596.383-2.158-3.188-2.625-2.5a3.54 3.54 0 0 0-.59 2.638z" opacity=".1"/>
        <path fill="url(#a)" fill-rule="nonzero" d="M123.888 94.2l-21.265-27.61c-1.66-7.752-4.153-7.752-4.153-7.752-16.945-2.261-21.596-5.168-21.596-5.168l-3.791-1.472-.316-.185-.046-.25a6.2 6.2 0 0 1-.04-.298 18.15 18.15 0 0 0 8.31-11.102l.088-.369a4.775 4.775 0 0 0 1.981-1.75c1.629-2.647.082-5.998.117-9.082.021-1.948.7-3.858.622-5.805-.064-1.63-.653-3.196-1.296-4.703-.312-.733-.656-1.482-1.254-2.024-1.585-1.426-4.15-.815-6.186-1.518-2.633-.909-3.86-3.742-5.382-6.02-.583-.88-1.644-1.808-2.602-1.326-1.124.564-.82 2.494-1.955 3.036-.688.328-1.53-.086-2.021-.658-.491-.573-.773-1.291-1.257-1.87a3.713 3.713 0 0 0-3.585-1.19 1.247 1.247 0 0 0-.681.345c-.363.42-.136 1.044-.11 1.59.085 1.84-2.188 2.863-4.066 3.058-1.878.195-4.09.218-5.215 1.7-.595.785-.722 1.807-1.123 2.7-.93 2.072-3.18 3.206-5.157 4.396-1.977 1.19-4.012 2.925-3.994 5.186.017 2.168 1.947 3.924 2.287 6.071.18 1.138-.1 2.313.124 3.445.413 2.076 2.37 3.47 4.174 4.648.123.08.247.159.374.234.032.127.064.253.099.379a18.238 18.238 0 0 0 9.383 11.275c.03.122.057.245.085.37.086.388.166.791.238 1.205l-.056.014v-.04l-21.002 5.31a.917.917 0 0 0-.395-.05c-.86-.07-3.55.85-6.69 13.319L13.082 95.815s-7.808 7.429-1.827 13.733c3.049 3.21 6.487 3.987 9.124 3.977a12.688 12.688 0 0 0 4.494-.754s-.108-.165-.274-.457l1.778.215c3.5 3.857 9.46 2.502 9.46 2.502s8.478-.095 8.79-4.491l15.238 4.635.06.825h8.002l-.013-.526 16.834-5.028c1.313 2.405 4.52 3.595 4.52 3.595s9.88.412 12.985-1.372a13.948 13.948 0 0 1 4.208-1.606l.086-.008-.02.02 19.02-2.024c8.64-7.423-1.659-14.85-1.659-14.85zm-95.742 6.566l-.418-.24a15.568 15.568 0 0 1 2.299-.673l3.7-4.53.64 4.467a8.477 8.477 0 0 0-6.221.976zm71.569-.036a7.804 7.804 0 0 0-4.79-1.554l.146-10.995c1.39.88 2.556 1.852 2.901 2.788.998 2.747 5.815 7.105 5.815 7.105l-2.502 2.039-.39.316c-.104.025-.21.05-.314.077l-.866.224z"/>
        <path fill="#EFB7B9" fill-rule="nonzero" d="M23.871 113.506l3.871.494L30 102.636 25.645 100 20 106.26z"/>
        <path fill="#000" fill-rule="nonzero" d="M23.871 113.506l3.871.494L30 102.636 25.645 100 20 106.26z" opacity=".03"/>
        <path fill="#EFB7B9" fill-rule="nonzero" d="M76 59.157l-9.502 8.44s-18.35 4.056-13.762-1.624c2.6-3.218 2.254-8.101 1.465-11.731a30.218 30.218 0 0 0-1.465-4.827s23.596-14.112 20.32-3.4c-.972 3.177-1.108 5.626-.82 7.498.688 4.44 3.764 5.644 3.764 5.644z"/>
        <path fill="#000" fill-rule="nonzero" d="M72.697 46.23c-.942 3.346-1.073 5.927-.794 7.899-5.3 3.532-11.932 3.824-17.483.77A33.916 33.916 0 0 0 53 49.815s22.874-14.87 19.697-3.586z" opacity=".1"/>
        <path fill="#EFB7B9" fill-rule="nonzero" d="M82 38C82 47.94 73.719 56 63.502 56c-10.216.001-18.5-8.055-18.502-17.995-.003-9.94 8.276-18 18.493-18.005 4.912-.016 9.627 1.875 13.102 5.254C80.069 28.634 82.015 33.221 82 38z"/>
        <path fill="#E1E7EF" fill-rule="nonzero" d="M51 61.2V94l32-2.56L77.64 58l-14.132 8.32z"/>
        <path fill="#000" fill-rule="nonzero" d="M68 81l-3.443-9.726h.142c3.61-3.921 2.04-6.274 2.04-6.274h-5.011c-3.191 2.262-.977 5.193-.225 6.037L60 81h8z" opacity=".1"/>
        <path fill="#444053" fill-rule="nonzero" d="M68 81l-3.443-9.726h.142c3.61-3.921 2.04-6.274 2.04-6.274h-5.011c-3.191 2.262-.977 5.193-.225 6.037L60 81h8z"/>
        <path fill="#000" fill-rule="nonzero" d="M73.353 54S72.305 58.677 65 64.916c0 0 2.247.72 2.576 6.48L70.32 75s2.16-7.52 5.982-10.078c3.823-2.56 0-9.278 0-9.278L73.353 54z" opacity=".1"/>
        <path fill="#E1E7EF" fill-rule="nonzero" d="M73.353 54S72.305 58.677 65 64.916c0 0 2.247.72 2.576 6.48L70.32 75s2.16-7.52 5.982-10.078c3.823-2.56 0-9.278 0-9.278L73.353 54z"/>
        <path fill="#000" fill-rule="nonzero" d="M63 65.545s-3.17 2.49-3.342 6.473C59.485 76 57.816 76 57.816 76s-4.188-12.776-5.527-13.937C50.949 60.9 54.704 56 54.704 56S56.81 62.891 63 65.545z" opacity=".1"/>
        <path fill="#E1E7EF" fill-rule="nonzero" d="M63 65.545s-3.168 2.488-3.34 6.474C59.488 76.004 57.82 76 57.82 76s-4.186-12.779-5.53-13.939C50.946 60.901 54.704 56 54.704 56s2.112 6.89 8.296 9.545z"/>
        <path fill="#000" fill-rule="nonzero" d="M73 54l4.06 1.615s4.546 2.91 21.105 5.166c0 0 2.435 0 4.06 7.748l20.778 27.602s10.066 7.42 1.624 14.851L106.044 113s10.715-10.17-5.52-10.492l3-2.504s-4.709-4.364-5.682-7.102c-.973-2.738-8.926-5.81-8.926-5.81l.975 23.243-14.619 2.258-2.107-43.252a28.56 28.56 0 0 1 .352-6.1c.55-3.28 1.13-8.477-.517-9.241z" opacity=".1"/>
        <path fill="#67647E" fill-rule="nonzero" d="M73 54l4.06 1.615s4.546 2.91 21.105 5.166c0 0 2.435 0 4.06 7.748l20.778 27.602s10.066 7.42 1.624 14.851L106.044 113s10.715-10.17-5.52-10.492l3.004-2.502s-4.708-4.365-5.682-7.103c-.973-2.738-8.926-5.81-8.926-5.81l.975 23.243-14.628 2.257-2.108-43.252a28.56 28.56 0 0 1 .352-6.1c.556-3.28 1.137-8.477-.511-9.241z"/>
        <path fill="#000" fill-rule="nonzero" d="M55.484 56l-20.576 5.348s-3.078-1.942-6.804 13.276L14.98 98.258s-7.615 7.44-1.781 13.759c5.833 6.318 13.127 3.227 13.127 3.227s-6.643-10.358 5.023-12.95l4.38-5.502 19.765 2.266-.497-28.49.553-3.32a32.942 32.942 0 0 0 0-10.841L55.484 56z" opacity=".1"/>
        <path fill="#67647E" fill-rule="nonzero" d="M55.488 56l-20.576 5.35s-3.079-1.943-6.805 13.277L14.983 98.264s-7.62 7.442-1.78 13.75c5.841 6.31 13.124 3.239 13.124 3.239s-6.643-10.36 5.023-12.951l4.38-5.504 19.767 2.266-.495-28.493.549-3.321a32.95 32.95 0 0 0 0-10.843L55.488 56z"/>
        <path fill="#E4E6ED" fill-rule="nonzero" d="M34.923 71L33 72.472 62 80v-2.945zM91.073 70L93 71.397 62 79v-2.793z"/>
        <path fill="#45B0F2" fill-rule="nonzero" d="M31 71l27.067 6.339L60 117l-23.684-7.477zM95 71l-29 6.738L67.62 118l26.894-8.382z"/>
        <path fill="#45B0F2" fill-rule="nonzero" d="M58 78s4.876 2.896 10.002 0L69 118h-8.006L58 78z"/>
        <path fill="#000" fill-rule="nonzero" d="M58 78s4.876 2.896 10.002 0L69 118h-8.006L58 78z" opacity=".1"/>
        <path fill="#D8D9E5" fill-rule="nonzero" d="M36 70v1.05L62 76s-13.236-4.65-26-6zM91 70v.955L62 76s15.801-4.772 29-6z"/>
        <path fill="#EFB7B9" fill-rule="nonzero" d="M100.19 101.425l-.857.244s-5.578-5.155-12.688 2.655c-7.11 7.81 2.366 11.632 2.366 11.632s9.763.442 12.829-1.473a13.075 13.075 0 0 1 4.273-1.748 4.314 4.314 0 0 0 2.393-1.426c1.163-1.345 1.688-3.173 1.429-4.973-.339-2.385-1.991-4.328-4.2-4.94-1.82-.499-3.731-.489-5.546.029zM28.156 102.764s6.48-5.928 14.42 3.952c7.938 9.88-6.158 10.05-6.158 10.05s-7.62 1.806-10.53-4.616c-2.91-6.422 2.268-9.386 2.268-9.386z"/>
        <path fill="#000" fill-rule="nonzero" d="M100 101.702s7.249 2.281 5.695 11.298l4.38-.515.925-4.585-1.87-6.385-3.586-1.515-5.544 1.702z" opacity=".1"/>
        <path fill="#67647E" fill-rule="nonzero" d="M100 101.702s7.249 2.281 5.695 11.298l4.38-.515.925-4.585-1.87-6.385-3.586-1.515-5.544 1.702z"/>
        <path fill="#000" fill-rule="nonzero" d="M81.999 38.74c0 1.5-.176 2.994-.527 4.45a6.353 6.353 0 0 1-3.73.555c-2.189-.339-4.121-1.658-5.721-3.206-1.6-1.548-2.943-3.35-4.487-4.96-1.399-1.459-3.126-2.823-5.132-2.881-1.822-.055-3.482.976-5.238 1.465-1.84.512-5.547-.887-6.444.693-.527.929-.341 2.971-.652 4.07a16.08 16.08 0 0 1-1.419 3.444c-.446.795-1.103 1.637-2.003 1.63a2.008 2.008 0 0 1-.989-.32c-1.901-7.034.401-14.546 5.902-19.254a18.316 18.316 0 0 1 19.73-2.684c6.533 3.07 10.712 9.701 10.711 16.994l-.001.005z" opacity=".1"/>
        <path fill="#585268" fill-rule="nonzero" d="M56.27 32.444c1.733-.474 3.375-1.475 5.165-1.422 1.978.057 3.682 1.381 5.06 2.797 1.521 1.561 2.845 3.31 4.425 4.813 1.58 1.504 3.483 2.78 5.64 3.112 2.159.332 4.588-.477 5.708-2.34 1.595-2.66.08-6.03.114-9.128.022-1.96.686-3.878.611-5.836-.063-1.638-.64-3.218-1.27-4.727-.306-.731-.643-1.489-1.23-2.032-1.554-1.433-4.069-.819-6.065-1.526-2.58-.914-3.784-3.762-5.275-6.052-.576-.878-1.615-1.815-2.552-1.333-1.102.568-.803 2.508-1.917 3.052-.675.33-1.5-.086-1.981-.661-.482-.575-.76-1.298-1.232-1.879a3.588 3.588 0 0 0-3.523-1.198 1.212 1.212 0 0 0-.668.347c-.355.421-.133 1.049-.108 1.599.085 1.85-2.139 2.876-3.985 3.072-1.847.196-4.012.22-5.113 1.71-.587.789-.707 1.816-1.1 2.714-.914 2.083-3.119 3.219-5.058 4.42-1.939 1.2-3.933 2.94-3.916 5.212.018 2.184 1.908 3.95 2.243 6.105.176 1.144-.098 2.326.122 3.463.404 2.086 2.322 3.486 4.092 4.671.44.293.91.599 1.439.603.88.007 1.54-.81 1.975-1.582a15.479 15.479 0 0 0 1.4-3.342c.306-1.07.123-3.052.642-3.95.887-1.542 4.542-.186 6.356-.682z"/>
    </g>
</svg>
