<svg xmlns="http://www.w3.org/2000/svg" width="96" height="96" viewBox="0 0 96 96">
    <g fill="none" fill-rule="evenodd">
        <circle cx="48" cy="48" r="48" fill="#DFFFA8"/>
        <path fill="#556080" fill-rule="nonzero" d="M47 36h2v24h-2z"/>
        <path fill="#556080" fill-rule="nonzero" d="M71 60h-2V49H27v11h-2V47h46z"/>
        <path fill="#FB7B76" fill-rule="nonzero" d="M26 74a7 7 0 1 1 0-14 7 7 0 0 1 0 14zM70 74a7 7 0 1 1 0-14 7 7 0 0 1 0 14zM48 74a7 7 0 1 1 0-14 7 7 0 0 1 0 14z"/>
        <path fill="#B49ACA" fill-rule="nonzero" d="M41 22h14v14H41z"/>
    </g>
</svg>
