<svg xmlns="http://www.w3.org/2000/svg" xmlns:xlink="http://www.w3.org/1999/xlink" width="96" height="96" viewBox="0 0 96 96">
    <defs>
        <circle id="a" cx="48" cy="48" r="48"/>
    </defs>
    <g fill="none" fill-rule="evenodd">
        <mask id="b" fill="#fff">
            <use xlink:href="#a"/>
        </mask>
        <use fill="#F8DA9F" xlink:href="#a"/>
        <path fill="#FFF" d="M78 42h4v1h-4v4h-1v-4h-4v-1h4v-4h1v4zM18 32h4v1h-4v4h-1v-4h-4v-1h4v-4h1v4zM31 24h2v1h-2v2h-1v-2h-2v-1h2v-2h1v2z" mask="url(#b)"/>
        <g mask="url(#b)">
            <g transform="translate(27 17)">
                <path fill="#8AB9C5" d="M4.66 45.445L21.462 44l16.87 1.445a3 3 0 0 1 2.74 2.816L42.848 79h-5.08V65.008L35.666 79H7.333L5.54 65.008V79H.075l1.848-30.746a3 3 0 0 1 2.737-2.81z"/>
                <path fill="#699CA9" d="M28 56h5l-.417 5h-4.166z"/>
                <path fill="#E9D9B2" d="M17.333 40.667H26.5V44l-4.583 1.667L17.333 44z"/>
                <path fill="#699CA9" d="M21.925 45.715l-2.292 3.6-5.755-4.625 3.436-.704 4.605 1.686 4.517-1.72 3.298.762-5.397 4.616-2.412-3.615z"/>
                <path fill="#FFF3D4" d="M10.667 12.333c4.982-.64 8.593-.96 10.833-.96 2.574 0 6.186.32 10.833.96 2.686.33 5 2.239 5 5L34 35.667c-.805 2.517-2.395 3.969-5 5-3.196.946-5.696 1.42-7.5 1.42-1.529 0-4.029-.474-7.5-1.42-2.026-.74-4.53-2.23-5-5L5.667 17.333c0-2.761 2.516-4.721 5-5z"/>
                <path fill="#E9D9B2" d="M16.5 34c0 .92 2.239 2.72 5 2.72s5-1.8 5-2.72h-10z"/>
                <ellipse cx="28.167" cy="25.667" fill="#575757" rx="1" ry="1.667"/>
                <ellipse cx="15.667" cy="25.667" fill="#575757" rx="1" ry="1.667"/>
                <path fill="#575757" fill-rule="nonzero" d="M27.824 21.6l.185-1.657c2.15.239 3.404.963 3.404 2.365h-1.666c0-.252-.521-.553-1.923-.709zM15.83 21.495l-.184-1.657c-2.15.24-3.405.963-3.405 2.365h1.667c0-.252.52-.552 1.922-.708z"/>
                <path fill="#575757" d="M9.578 29.74c-1.69-9.53-1.423-14.295.8-14.295 3.333 0 8.27.64 10.53.64 2.258 0 4.41-.41 10.014-.934 3.735-.349 4.603 4.512 2.603 14.581l2.54-1.159a93.33 93.33 0 0 0 .845-2.755c2.981-10.588 1.212-16.224-5.308-16.907-1.016-1.66-.24-3.385 2.33-5.178-4.071.492-6.47 1.754-7.2 3.787.494-3.152 1.89-5.059 4.19-5.72-6.09-.954-9.916.25-11.479 3.613.19-2.384 1.304-4.065 3.341-5.044-5.322 1.763-8.586 4.386-9.79 7.868-8.661 1.39-8.574 7.652-6.089 19.72l2.673 1.784z"/>
            </g>
        </g>
    </g>
</svg>
