<svg xmlns="http://www.w3.org/2000/svg" width="175" height="134" viewBox="0 0 175 134">
    <defs>
        <linearGradient id="a" x1="45.734%" x2="63.434%" y1="101.416%" y2="-1.025%">
            <stop offset="0%" stop-color="gray" stop-opacity=".25"/>
            <stop offset="54%" stop-color="gray" stop-opacity=".12"/>
            <stop offset="100%" stop-color="gray" stop-opacity=".1"/>
        </linearGradient>
        <linearGradient id="b" x1="50.006%" x2="50.006%" y1="99.993%" y2=".023%">
            <stop offset="0%" stop-color="gray" stop-opacity=".25"/>
            <stop offset="54%" stop-color="gray" stop-opacity=".12"/>
            <stop offset="100%" stop-color="gray" stop-opacity=".1"/>
        </linearGradient>
    </defs>
    <g fill="none" fill-rule="evenodd">
        <path fill="#45B0F2" fill-rule="nonzero" d="M163.973 75.856c-6.448 9.65-4.816 23.062-1.569 33.685 1.093 3.557 2.328 7.315 1.594 11.245-.897 4.807-4.558 8.51-8.31 10.582-6.839 3.78-14.777 3.47-20.666-.806-5.09-3.696-8.548-10.003-13.742-13.517-8.681-5.86-20.273-2.725-30.284 2.312-7.082 3.56-14.857 8.099-21.569 5.251-4.722-2.004-7.783-7.401-9.304-13.229-.734-2.813-1.215-5.879-2.78-8.049-.937-1.29-2.186-2.175-3.48-2.894-11.824-6.64-27.423-1.733-38.862-9.2C7.28 86.204 2.689 76.084.974 65.34c-1.715-10.743-.87-22.17.276-33.415.814-7.99 1.98-16.538 6.46-22.944C12.45 2.206 20.139-.679 26.92.134 33.7.946 39.661 4.97 44.85 9.828c6.486 6.06 12.395 13.743 20.63 15.847 5.608 1.437 11.651.088 17.545-.622 9.854-1.173 19.619-.52 29.318.255 9.287.743 18.634 1.614 27.355 4.78 6.172 2.24 10.985 6.703 16.77 9.67 3.772 1.934 7.973 2.273 11.507 4.816 4.354 3.13 8.202 8.808 6.689 15.822-1.439 6.68-7.27 10.333-10.692 15.46z" opacity=".1"/>
        <path fill="#45B0F2" fill-rule="nonzero" d="M137 40h7v9h-7z" opacity=".1"/>
        <path fill="#45B0F2" fill-rule="nonzero" d="M138 41h5v8h-5zM125 33h9v9h-9z" opacity=".1"/>
        <path fill="#45B0F2" fill-rule="nonzero" d="M126 34h8v8h-8zM10 19h30v1H10zM10 22h30v1H10z" opacity=".1"/>
        <path fill="#D6D6E3" fill-rule="nonzero" d="M61 70h3v34h-3z"/>
        <path fill="#AEBEE1" fill-rule="nonzero" d="M153.416 74.009v-31.68c0-1.839 1.476-3.329 3.295-3.329 1.817.003 3.288 1.493 3.289 3.329v38.34c0 1.84-1.475 3.331-3.295 3.331h-20.41c-1.82 0-3.295-1.491-3.295-3.33 0-1.84 1.475-3.33 3.295-3.33h13.825c1.82 0 3.296-1.492 3.296-3.331z"/>
        <path fill="#535461" fill-rule="nonzero" d="M153.416 74.009v-31.68c0-1.839 1.476-3.329 3.295-3.329 1.817.003 3.288 1.493 3.289 3.329v38.34c0 1.84-1.475 3.331-3.295 3.331h-20.41c-1.82 0-3.295-1.491-3.295-3.33 0-1.84 1.475-3.33 3.295-3.33h13.825c1.82 0 3.296-1.492 3.296-3.331z"/>
        <path fill="#D6D6E3" fill-rule="nonzero" d="M133 80c.096-1.746 1.569-3.114 3.354-3.114h14.09c1.855 0 3.359-1.474 3.359-3.291V42.289C153.8 40.532 155.209 39.084 157 39v41h-24z"/>
        <path fill="#AEBEE1" fill-rule="nonzero" d="M29.583 76.003V44.33c0-1.836-1.47-3.326-3.287-3.33C24.476 41 23 42.49 23 44.33v38.332a3.347 3.347 0 0 0 .962 2.36 3.279 3.279 0 0 0 2.334.978h20.408C48.524 86 50 84.51 50 82.67c0-1.839-1.475-3.33-3.296-3.33H32.88a3.278 3.278 0 0 1-2.334-.977 3.347 3.347 0 0 1-.963-2.36z"/>
        <path fill="#535461" fill-rule="nonzero" d="M29.583 76.003V44.33c0-1.836-1.47-3.326-3.287-3.33C24.476 41 23 42.49 23 44.33v38.332a3.347 3.347 0 0 0 .962 2.36 3.279 3.279 0 0 0 2.334.978h20.408C48.524 86 50 84.51 50 82.67c0-1.839-1.475-3.33-3.296-3.33H32.88a3.278 3.278 0 0 1-2.334-.977 3.347 3.347 0 0 1-.963-2.36z"/>
        <path fill="#D6D6E3" fill-rule="nonzero" d="M51 82c-.096-1.747-1.57-3.115-3.354-3.115H33.554a3.395 3.395 0 0 1-2.376-.963 3.258 3.258 0 0 1-.985-2.328V44.287c0-1.755-1.405-3.2-3.193-3.287v41h24zM121 70h3v35h-3z"/>
        <path fill="#000" fill-rule="nonzero" d="M61 70h3v2h-3zM121 70h3v2h-3zM72 49c-.08.329-.18.662-.3 1H71v-1h1z" opacity=".1"/>
        <path fill="#535461" fill-rule="nonzero" d="M84 65.994c.01.553-.386 1.006-.874 1.006h-9.229v-.972h7.679c.331 0 .538-.405.372-.73l-6.964-14.31a.616.616 0 0 0-.54-.352H71V49h4.35c.161.004.307.1.377.246l7.983 15.58c.184.362.283.761.29 1.168z"/>
        <path fill="#535461" fill-rule="nonzero" d="M67.328 63.787L67.2 64l-1.2-.792L69.712 35h.956s.039.13.103.377c.64 2.438 3.782 16.245-3.443 28.41z"/>
        <path fill="#000" fill-rule="nonzero" d="M71 35.377l-3.608 28.41-.134.213L66 63.208 69.891 35h1.002s.04.134.107.377z" opacity=".1"/>
        <path fill="#D6D6E3" fill-rule="nonzero" d="M65.223 64.775l3.568-29.787 1.986.237-3.568 29.787z"/>
        <path fill="#E3EDF9" fill-rule="nonzero" d="M57 66.499c0 .276-.128.5-.286.501h-.427c-.158 0-.286-.225-.286-.501a.426.426 0 0 1 0-.06c.018-.25.139-.438.282-.439h.428c.13.002.244.159.276.381A.78.78 0 0 1 57 66.5zM58 66.499c0 .276-.128.5-.286.501h-.428c-.158 0-.286-.225-.286-.501 0-.047.004-.094.012-.138a.615.615 0 0 1 .072-.214c.052-.095.125-.148.2-.147h.428c.113 0 .216.114.263.293A.86.86 0 0 1 58 66.5z"/>
        <path fill="#E3EDF9" fill-rule="nonzero" d="M59 66.5c0 .275-.128.498-.286.5h-.428c-.158 0-.286-.224-.286-.5 0-.072.008-.143.025-.208.047-.176.148-.29.26-.292h.427c.076 0 .15.052.203.146a.726.726 0 0 1 .083.354H59zM61 66.499c0 .276-.128.5-.286.501h-.428c-.107 0-.204-.104-.254-.27a.833.833 0 0 1 .02-.519l.033-.064c.053-.095.125-.148.2-.147h.429c.079.002.154.06.207.161A.71.71 0 0 1 61 66.5z"/>
        <path fill="#000" fill-rule="nonzero" d="M56.992 67a.52.52 0 0 1 .008.097c0 .222-.128.402-.286.403h-.427c-.158 0-.286-.18-.286-.403a.276.276 0 0 1 0-.047l.99-.05zM57.977 67c.015.09.023.185.023.282 0 .395-.128.716-.286.718h-.428c-.158 0-.286-.322-.286-.718 0-.067.004-.134.012-.198l.965-.084zM58.957 67c.028.104.043.223.043.345 0 .36-.128.653-.286.655h-.428c-.158 0-.286-.293-.286-.655 0-.094.008-.187.025-.272l.932-.073zM61 67.404c0 .328-.128.594-.286.596h-.428c-.107 0-.204-.124-.254-.32a1.166 1.166 0 0 1 .02-.617l.87-.063c.05.108.078.253.078.404z" opacity=".1"/>
        <path fill="#D6D6E3" fill-rule="nonzero" d="M62.998 68H55v-.301c0-.278.266-.506.602-.515L62.017 67c.257-.007.507.073.693.22.185.149.29.353.29.566l-.002.214z"/>
        <path fill="#535461" fill-rule="nonzero" d="M101 65.994c-.01.553.386 1.006.875 1.006h9.235v-.972h-7.69c-.332 0-.538-.405-.372-.73l6.965-14.31c.1-.21.309-.346.54-.352H114V49h-4.348a.432.432 0 0 0-.371.245l-7.985 15.58a2.67 2.67 0 0 0-.296 1.169z"/>
        <path fill="#535461" fill-rule="nonzero" d="M117.673 63.787l.128.213 1.199-.792L115.29 35h-.955s-.04.13-.103.377c-.641 2.438-3.788 16.245 3.44 28.41z"/>
        <path fill="#000" fill-rule="nonzero" d="M115 35.377l3.608 28.41.134.213 1.258-.792L116.11 35h-1.002s-.04.134-.108.377z" opacity=".1"/>
        <path fill="#D6D6E3" fill-rule="nonzero" d="M114.223 35.225l1.986-.237 3.568 29.787-1.986.237z"/>
        <path fill="#E3EDF9" fill-rule="nonzero" d="M128 66.499c0 .276.128.5.286.501h.427c.158 0 .286-.225.286-.501a.426.426 0 0 0 0-.06c-.018-.25-.139-.438-.282-.439h-.428c-.13.002-.244.159-.276.381a.78.78 0 0 0-.013.118z"/>
        <path fill="#E3EDF9" fill-rule="nonzero" d="M127 66.499c.001.276.129.5.286.501h.428c.076 0 .149-.053.202-.147A.734.734 0 0 0 128 66.5a.843.843 0 0 0-.012-.138.615.615 0 0 0-.072-.214c-.052-.095-.125-.148-.2-.147h-.436c-.113 0-.216.114-.263.293a.881.881 0 0 0-.016.206z"/>
        <path fill="#E3EDF9" fill-rule="nonzero" d="M126 66.5c0 .275.128.498.286.5h.428c.158 0 .286-.224.286-.5a.786.786 0 0 0-.025-.208c-.047-.176-.148-.29-.26-.292h-.427c-.076 0-.15.052-.203.146a.726.726 0 0 0-.083.354H126z"/>
        <path fill="#E3EDF9" fill-rule="nonzero" d="M125 66.499c0 .276.128.5.286.501h.428c.107 0 .204-.104.254-.27a.833.833 0 0 0-.02-.519l-.033-.064c-.053-.095-.125-.148-.2-.147h-.429c-.079.002-.154.06-.207.161a.71.71 0 0 0-.079.338z"/>
        <path fill="#000" fill-rule="nonzero" d="M128.008 67a.52.52 0 0 0-.008.097c0 .222.128.402.286.403h.427c.158 0 .286-.18.286-.403a.276.276 0 0 0 0-.047l-.99-.05zM127.023 67c-.015.09-.023.185-.023.282 0 .395.128.716.286.718h.428c.158 0 .286-.322.286-.718 0-.067-.004-.134-.012-.198l-.965-.084zM126.043 67a1.35 1.35 0 0 0-.043.345c0 .36.128.653.286.655h.428c.158 0 .286-.293.286-.655 0-.094-.008-.187-.025-.272l-.932-.073z" opacity=".1"/>
        <path fill="#000" fill-rule="nonzero" d="M125 67.404c0 .328.128.594.286.596h.428c.107 0 .204-.124.254-.32.049-.198.041-.435-.02-.617l-.87-.063a.978.978 0 0 0-.078.404z" opacity=".1"/>
        <path fill="#D6D6E3" fill-rule="nonzero" d="M122.002 68H130v-.301c0-.278-.266-.506-.602-.515L122.983 67a1.069 1.069 0 0 0-.693.22.728.728 0 0 0-.29.566l.002.214z"/>
        <path fill="url(#a)" fill-rule="nonzero" d="M154.435 72.138c3.613-6.073 2.304-18.324 2.45-18.558.13-.207-.369-5.976-3.689-7.385-.6-1.178-1.19-2.505-1.19-2.505a1.053 1.053 0 0 1-.191.14 10.26 10.26 0 0 1-.077-.213c-.042-.123-.082-.249-.12-.374.092.029.187.053.283.071.253.061.52.038.758-.067a.843.843 0 0 0 .217-.166c.262-.172.406-.483.528-.776l.967-2.294c.435-1.035.874-2.077 1.105-3.174a8.86 8.86 0 0 0-.385-4.945c-.229-.602-.545-1.204-1.082-1.564-1.076-.724-2.573-.224-3.803-.648-.404-.14-.769-.375-1.173-.518-.873-.31-1.858-.144-2.697.242-.84.387-1.52 1.001-2.254 1.552-.362.275-.94.559-1.366.931-.413.32-.731.707-.67 1.216.069.582.687.931 1.264 1.068.095.021.194.038.291.055a5.553 5.553 0 0 0-1.448 5.317 5.61 5.61 0 0 0 3.855 3.965 13.034 13.034 0 0 1 .845 1.937c-.95.267-1.692.489-1.84.612-.45.369.491 3.604.491 3.604-.24.3-.484.644-.731 1.011a21.692 21.692 0 0 0-3.471 9.402 43.713 43.713 0 0 1-.619 3.676l-11.225-2.23-.024.275-.268-.065-.842-.207-.033.188-.129-.06c-2.087-.97-5.605-2.21-7.988-.932-2.513 1.341 2.912 3.123 6.394 4.071-1.154.056-2.259.331-3.133.974-2.524 1.875 4.616 2.85 7.988 3.197l.137.014v.071l1.168.107.274.025.027.413s1.673.272 3.908.6c-2.552.632-5.705 1.07-7.894 1.326-2.322.27-4.298 1.872-4.922 4.106a3.619 3.619 0 0 0-.056 1.974c.652 2.255-.144 18.845-.324 22.418l-4.127 2.355s-6.422.776-2.144 2.267c.385.13.779.235 1.179.31-.564.361-.515.831 1.146 1.409 4.281 1.487 14.231-.066 14.231-.066s-.217-1.747-.571-3.2l.11.01s-1.028-3.79.53-5.7c1.559-1.91-.261-16.452-.261-16.452s2.728-1.12 10.884-1.192c6.578 1.673 9.784-4.317 9.739-7.413-.014-.07-.017-.141-.022-.205z"/>
        <path fill="#F8B9BF" fill-rule="nonzero" d="M131 62.274L130.31 65s-.622-.136-1.553-.37c-3.154-.796-9.807-2.71-7.14-4.113 2.299-1.212 5.684-.033 7.694.886.736.338 1.289.64 1.535.783.104.057.154.088.154.088z"/>
        <path fill="#000" fill-rule="nonzero" d="M129.956 63.81L129.48 66s-.592-.152-1.481-.41l.535-3.59c.702.376 1.23.712 1.465.87l-.044.94z" opacity=".1"/>
        <path fill="#D9DFE8" fill-rule="nonzero" d="M130.801 66L129 65.525l.56-3.525 1.44.38z"/>
        <path fill="#000" fill-rule="nonzero" d="M129.796 66l-.796-.215.3-3.785.7.19z" opacity=".1"/>
        <path fill="#45B0F2" fill-rule="nonzero" d="M148.708 51.36s-3.798-2.137-5.486 3.995c-1.688 6.133-1.847 8.958-1.847 8.958l-11.994-2.336-.381 4.267s12.824 4.034 14.437 3.74c1.613-.292 6.848-8.842 6.848-8.842s4.758-6.626-1.577-9.781z"/>
        <g fill="#000" fill-rule="nonzero" opacity=".1">
            <path d="M131.125 62.836l-.698 2.78s-.627-.139-1.568-.377c-3.188-.812-9.91-2.763-7.216-4.195 2.323-1.236 5.744-.034 7.776.903a19.65 19.65 0 0 1 1.706.889z"/>
            <path d="M130.93 63.62l-.503 2.008s-.627-.139-1.568-.376l.566-3.292a19.65 19.65 0 0 1 1.551.798l-.047.862z"/>
            <path d="M130.931 65.818l-1.948-.474.605-3.516 1.558.379z"/>
            <path d="M130.931 65.818l-.84-.203.316-3.587.739.179z"/>
            <path d="M149.73 51.41s-3.742-2.128-5.405 3.979c-1.662 6.106-1.82 8.919-1.82 8.919l-11.814-2.327-.375 4.25s12.632 4.016 14.221 3.724c1.59-.292 6.745-8.805 6.745-8.805s4.687-6.597-1.553-9.74z"/>
        </g>
        <path fill="#68739D" fill-rule="nonzero" d="M125.192 98.287l-4.738 2.817s-6.138.776-2.05 2.255c4.09 1.48 13.596-.065 13.596-.065s-.528-4.41-1.265-5.025c-.736-.615-5.543.018-5.543.018z"/>
        <path fill="#6394E2" fill-rule="nonzero" d="M143.895 67.072s-2.43 1.253-6.749 2.335c-2.53.627-5.698 1.071-7.887 1.325-2.292.246-4.207 1.831-4.85 4.015-.199.63-.218 1.302-.055 1.942.72 2.48-.354 22.634-.354 22.634l7.42.677s-1.013-3.714.523-5.585c1.537-1.872-.257-16.12-.257-16.12s2.688-1.096 10.72-1.168c7.442 1.88 10.508-6.15 9.36-8.401-1.149-2.251-7.87-1.654-7.87-1.654z"/>
        <g fill="#000" fill-rule="nonzero" opacity=".1">
            <path d="M125.314 98.35l-4.783 2.776s-6.197.765-2.069 2.223c4.129 1.458 13.726-.064 13.726-.064s-.533-4.346-1.277-4.953c-.743-.606-5.597.018-5.597.018z"/>
            <path d="M143.958 67.198s-2.38 1.254-6.608 2.337c-2.478.627-5.58 1.073-7.724 1.326a5.582 5.582 0 0 0-4.747 4.019 3.608 3.608 0 0 0-.055 1.944c.705 2.482-.346 22.656-.346 22.656l7.264.677s-.99-3.717.513-5.59c1.505-1.874-.252-16.135-.252-16.135s2.632-1.097 10.497-1.17c7.286 1.882 10.289-6.156 9.164-8.409-1.125-2.253-7.706-1.655-7.706-1.655z"/>
        </g>
        <path fill="#68739D" fill-rule="nonzero" d="M127.191 100.286l-4.738 2.816s-6.136.77-2.05 2.255c4.087 1.484 13.597-.066 13.597-.066s-.529-4.407-1.265-5.022c-.737-.615-5.544.017-5.544.017z"/>
        <path fill="#6394E2" fill-rule="nonzero" d="M144.41 79.13c-8.034.071-10.723 1.168-10.723 1.168s1.794 14.252.258 16.117c-1.537 1.865-.525 5.585-.525 5.585l-7.42-.677s.013-.238.033-.664c.178-3.502.962-19.758.318-21.968a3.528 3.528 0 0 1 .056-1.936c.639-2.186 2.554-3.775 4.848-4.024 2.188-.252 5.356-.69 7.887-1.325l.124-.03c4.243-1.075 6.626-2.305 6.626-2.305s6.723-.595 7.872 1.656c.162.357.242.744.235 1.135.057 3.037-3.105 8.907-9.59 7.267z"/>
        <path fill="#F8B9BF" fill-rule="nonzero" d="M133 65.268L132.736 68s-.636-.043-1.58-.137c-3.225-.32-10.067-1.221-7.649-2.953 2.08-1.489 5.592-.84 7.711-.237.773.222 1.366.436 1.63.538.098.035.152.057.152.057zM153 46.827s-.937.721-2.082 1.512c-1.256.28-2.714.511-3.765.661.375-1.177.15-2.5-.274-3.661A13.71 13.71 0 0 0 145 41.943L151.335 40c-.497 1.237-.272 2.648.15 3.875A12.692 12.692 0 0 0 153 46.827z"/>
        <path fill="#000" fill-rule="nonzero" d="M132 66.642L131.893 69s-.36-.051-.893-.165l.035-3.835c.437.266.772.524.921.646l.044.996z" opacity=".1"/>
        <path fill="#D9DFE8" fill-rule="nonzero" d="M134 69l-2-.195.066-3.805 1.6.155z"/>
        <path fill="#000" fill-rule="nonzero" d="M154 46.883s-1.072.703-2.381 1.474c-1.437.272-3.104.497-4.306.643.43-1.146.171-2.436-.313-3.567 1.77-.43 4.302-.986 5.27-1.433a11.802 11.802 0 0 0 1.73 2.883z" opacity=".1"/>
        <path fill="#D9DFE8" fill-rule="nonzero" d="M152.1 44s1.141 2.583 1.86 3.75c.718 1.167-8.347 2.25-8.347 2.25s-.94-3.252-.491-3.624c.449-.373 6.22-1.62 6.979-2.376z"/>
        <path fill="#000" fill-rule="nonzero" d="M154 71.78a7.778 7.778 0 0 1-1.417 1.724c-4.02 3.592-10.61-.152-13.583-2.198 4.318-1.043 6.743-2.237 6.743-2.237s6.842-.578 8.011 1.607c.167.347.251.724.246 1.104z" opacity=".1"/>
        <path fill="#45B0F2" fill-rule="nonzero" d="M152.267 73.46c-4.314 4.206-11.754-1.362-13.76-3.003-.325-.266-.507-.431-.507-.431.792-.761 1.488-2.375 2.04-4.35a39.066 39.066 0 0 0 1.11-5.763 21.745 21.745 0 0 1 3.284-9.218c.234-.36.458-.697.692-.992 1.629-2.126 4.366-3.477 4.366-3.477 5.776-1.733 6.553 7.062 6.4 7.316-.155.254 1.39 15.028-3.625 19.919z"/>
        <path fill="#000" fill-rule="nonzero" d="M153.023 61.892s-3.764 9.482-5.269 10.023c-.861.308-5.463-.276-9.24-.834-.33-.27-.514-.439-.514-.439.803-.775 1.508-2.42 2.067-4.43l4.864.239s-.27-2.896.444-9.39c.715-6.493 4.676-4.884 4.676-4.884 6.554 2.265 2.972 9.715 2.972 9.715zM134 69l-.79-.086L133 65l.694.074z" opacity=".1"/>
        <path fill="#45B0F2" fill-rule="nonzero" d="M150.042 51.176s-3.974-1.607-4.69 4.885c-.717 6.493-.446 9.39-.446 9.39L133 64.866l.268 4.4s12.959 2.188 14.468 1.648c1.51-.54 5.285-10.023 5.285-10.023s3.59-7.45-2.979-9.715z"/>
        <path fill="#000" fill-rule="nonzero" d="M150.758 42.733c-.185-.899.865-.887 1.242-1.733l-7 1.954c.486.583.92 1.2 1.297 1.844.363.097.736.16 1.113.192 1.669.142 2.19-1.326 3.348-2.257z" opacity=".1"/>
        <circle cx="147.5" cy="38.5" r="5.5" fill="#F8B9BF" fill-rule="nonzero" transform="rotate(-84.72 147.5 38.5)"/>
        <path fill="#000" fill-rule="nonzero" d="M142.007 33.924c.067.573.665.922 1.22 1.051.556.13 1.159.136 1.646.436.778.485.988 1.562.89 2.487-.054.523-.132 1.163.291 1.467.133.082.282.136.436.157.442.09.895.107 1.342.048.261-.035.53-.095.778-.02.408.119.65.553.729.973.08.42.036.858.1 1.282a2.647 2.647 0 0 0 2.073 2.162c.244.06.501.037.731-.066.296-.157.447-.492.575-.806l.934-2.26c.42-1.018.843-2.046 1.067-3.126a8.895 8.895 0 0 0-.372-4.87c-.22-.591-.526-1.185-1.044-1.54-1.038-.714-2.49-.22-3.67-.63-.391-.137-.743-.37-1.132-.51-.842-.304-1.793-.143-2.604.24-.811.382-1.466.984-2.18 1.534-.617.486-1.926 1-1.81 1.99z" opacity=".1"/>
        <path fill="#B96B6B" fill-rule="nonzero" d="M142.007 33.924c.067.573.665.922 1.22 1.051.556.13 1.159.136 1.646.436.778.485.988 1.562.89 2.487-.054.523-.132 1.163.291 1.467.133.082.282.136.436.157.442.09.895.107 1.342.048.261-.035.53-.095.778-.02.408.119.65.553.729.973.079.42.035.858.1 1.282a2.647 2.647 0 0 0 2.073 2.162c.244.06.501.037.731-.066.296-.157.447-.492.575-.806l.934-2.26c.42-1.018.843-2.046 1.067-3.126a8.894 8.894 0 0 0-.372-4.87c-.22-.591-.526-1.185-1.044-1.54-1.038-.714-2.49-.22-3.67-.63-.391-.137-.743-.37-1.132-.51-.842-.304-1.793-.143-2.604.24-.811.382-1.467.984-2.18 1.534-.616.486-1.925 1-1.81 1.99z"/>
        <path fill="#000" fill-rule="nonzero" d="M147 55s-2.266 7.43-4.521 8.117c-2.256.688-1.26.883-1.26.883" opacity=".1"/>
        <path fill="#D6D6E3" fill-rule="nonzero" d="M145 85h2v14h-2z"/>
        <path fill="#000" fill-rule="nonzero" d="M145 85h2v1h-2z" opacity=".1"/>
        <path fill="#D6D6E3" fill-rule="nonzero" d="M140 84.412v.176c0 .11.082.214.227.291.146.078.343.121.549.121h10.448c.206 0 .403-.043.549-.12.145-.078.227-.183.227-.292v-.176c0-.227-.347-.412-.776-.412h-10.448c-.206 0-.403.043-.549.12-.145.078-.227.183-.227.292z"/>
        <path fill="#000" fill-rule="nonzero" d="M140 84.5h11c-.139-.317-.346-.5-.566-.5h-9.87c-.219 0-.425.184-.564.5z" opacity=".1"/>
        <rect width="19" height="1" x="137" y="99" fill="#D6D6E3" fill-rule="nonzero" rx=".5"/>
        <circle cx="153" cy="102" r="1" fill="#535461" fill-rule="nonzero"/>
        <circle cx="138" cy="102" r="1" fill="#535461" fill-rule="nonzero"/>
        <circle cx="146" cy="102" r="1" fill="#535461" fill-rule="nonzero"/>
        <rect width="17" height="3" x="143" y="67" fill="#D6D6E3" fill-rule="nonzero" rx="1.5"/>
        <path fill="#000" fill-rule="nonzero" d="M147 99s-.786 2.25-2 0M160 68v.16c0 .464-.484.84-1.08.84h-14.84c-.596 0-1.08-.376-1.08-.84V68h17z" opacity=".1"/>
        <path fill="#D6D6E3" fill-rule="nonzero" d="M129 70h3v39h-3z"/>
        <path fill="#000" fill-rule="nonzero" d="M129 70h3v2h-3z" opacity=".1"/>
        <path fill="#D6D6E3" fill-rule="nonzero" d="M36 85h2v14h-2z"/>
        <path fill="#000" fill-rule="nonzero" d="M36 85h2v1h-2z" opacity=".1"/>
        <path fill="#D6D6E3" fill-rule="nonzero" d="M44 85.41v.176c0 .229-.347.414-.776.414H32.776c-.206 0-.403-.044-.549-.121-.145-.078-.227-.183-.227-.293v-.176c.004-.227.35-.41.776-.41h10.448c.206 0 .403.044.549.121.145.078.227.183.227.293v-.004z"/>
        <path fill="#000" fill-rule="nonzero" d="M43 85.5H32c.14-.321.348-.504.565-.5h9.87c.217-.004.425.179.565.5z" opacity=".1"/>
        <rect width="19" height="1" x="28" y="100" fill="#D6D6E3" fill-rule="nonzero" rx=".5"/>
        <circle cx="29" cy="102" r="1" fill="#535461" fill-rule="nonzero"/>
        <circle cx="46" cy="102" r="1" fill="#535461" fill-rule="nonzero"/>
        <circle cx="37" cy="102" r="1" fill="#535461" fill-rule="nonzero"/>
        <path fill="#000" fill-rule="nonzero" d="M36 100s.786 2.25 2 0" opacity=".1"/>
        <path stroke="#535461" stroke-width="2" d="M94 55s-2.347-4.674-1.49-8.737a8.802 8.802 0 0 0-.41-5.093A14.021 14.021 0 0 0 91 39"/>
        <path fill="#45B0F2" fill-rule="nonzero" d="M90.985 36.083c.118.679-.511 2.917-.511 2.917s-1.312-1.697-1.431-2.376c-.109-.453-.008-.944.261-1.272.27-.328.661-.437 1.014-.283.353.154.608.546.66 1.014h.007zM93.921 39.815C93.73 40.492 92.236 42 92.236 42s-.374-2.422-.18-3.096c.113-.457.408-.796.767-.882.36-.087.727.092.956.466.23.374.285.883.144 1.327h-.002zM95.58 45.259C95.1 45.702 93 46 93 46s.684-2.265 1.164-2.708c.31-.291.734-.371 1.111-.21.377.16.648.538.711.988.063.45-.092.904-.407 1.189zM95.673 49.905C95.226 50.38 93 51 93 51s.368-2.113.816-2.585c.284-.32.736-.471 1.177-.396.442.076.804.366.945.759.14.392.039.824-.267 1.127h.002zM89.522 41.74C90.016 42.013 92 42 92 42s-.877-1.576-1.371-1.847a1.168 1.168 0 0 0-1.067-.046c-.338.157-.553.465-.562.804-.008.338.192.654.522.825v.005zM89.936 47.978c.703.14 3.064-.438 3.064-.438s-1.71-1.38-2.414-1.518c-.689-.112-1.37.213-1.545.738-.174.525.22 1.062.895 1.218zM90.799 52.908c.678.225 3.201-.033 3.201-.033s-1.422-1.563-2.1-1.788c-.68-.225-1.478 0-1.782.504-.304.503 0 1.093.68 1.318v-.001z"/>
        <path fill="#45B0F2" fill-rule="nonzero" d="M90.985 36.083c.118.679-.511 2.917-.511 2.917s-1.312-1.697-1.431-2.376c-.109-.453-.008-.944.261-1.272.27-.328.661-.437 1.014-.283.353.154.608.546.66 1.014h.007zM93.921 39.815C93.73 40.492 92.236 42 92.236 42s-.374-2.422-.18-3.096c.113-.457.408-.796.767-.882.36-.087.727.092.956.466.23.374.285.883.144 1.327h-.002zM95.58 45.259C95.1 45.702 93 46 93 46s.684-2.265 1.164-2.708c.31-.291.734-.371 1.111-.21.377.16.648.538.711.988.063.45-.092.904-.407 1.189zM95.673 49.905C95.226 50.38 93 51 93 51s.368-2.113.816-2.585c.284-.32.736-.471 1.177-.396.442.076.804.366.945.759.14.392.039.824-.267 1.127h.002zM89.522 41.74C90.016 42.013 92 42 92 42s-.877-1.576-1.371-1.847a1.168 1.168 0 0 0-1.067-.046c-.338.157-.553.465-.562.804-.008.338.192.654.522.825v.005zM89.936 47.978c.703.14 3.064-.438 3.064-.438s-1.71-1.38-2.414-1.518c-.689-.112-1.37.213-1.545.738-.174.525.22 1.062.895 1.218zM90.799 52.908c.678.225 3.201-.033 3.201-.033s-1.422-1.563-2.1-1.788c-.68-.225-1.478 0-1.782.504-.304.503 0 1.093.68 1.318v-.001z"/>
        <path fill="#45B0F2" fill-rule="nonzero" d="M93.5 67c-.69 0-1.35-.29-1.823-.804a2.58 2.58 0 0 1-.672-1.906L91.703 53h3.594l.698 11.29a2.58 2.58 0 0 1-.672 1.906A2.477 2.477 0 0 1 93.5 67z"/>
        <path fill="#45B0F2" fill-rule="nonzero" d="M13 10h2v9h-2zM16 10h2v9h-2zM19 10h2v9h-2zM22 10h2v9h-2zM28 10h2v9h-2zM30 10h2v9h-2z" opacity=".1"/>
        <path fill="#45B0F2" fill-rule="nonzero" d="M13 12h2v1h-2zM13 17h2v1h-2zM16 12h2v1h-2zM16 17h2v1h-2zM19 12h2v1h-2zM19 17h2v1h-2zM22 12h2v1h-2zM22 17h2v1h-2zM25 12h2v1h-2zM25 17h2v1h-2zM28 12h2v1h-2zM28 17h2v1h-2zM30 12h2v1h-2zM30 17h2v1h-2z" opacity=".1"/>
        <path fill="#45B0F2" fill-rule="nonzero" d="M25 10h2v9h-2zM32.202 10.836l1.815-.84 3.78 8.168-1.814.84z" opacity=".1"/>
        <path fill="#45B0F2" fill-rule="nonzero" d="M32.882 12.466l1.815-.84.42.908-1.814.84zM35.882 17.466l1.815-.84.42.908-1.814.84z" opacity=".1"/>
        <path fill="url(#b)" fill-rule="nonzero" d="M60.494 103.59l-3.962-2.536c-.02-3.57-.077-20.147.664-22.364a3.652 3.652 0 0 0 .031-1.972c-.514-2.254-2.392-3.937-4.667-4.308-2.146-.35-5.234-.924-7.72-1.665 2.216-.23 3.877-.429 3.877-.429l.044-.411 1.427-.069v-.06l.135-.009c3.333-.198 10.41-.86 8.005-2.84-.825-.678-1.9-1-3.036-1.107 3.471-.794 8.897-2.333 6.478-3.78-2.299-1.373-5.818-.294-7.92.583l-.128.055-.024-.19-.839.17-.267.053-.012-.275-11.773 1.823a40.406 40.406 0 0 0-.48-4.036c.264-1.761 1.49-4.33 1.057-5.707-.502-1.6-2.563-2.124-3.43-3.569-.228-.377-.454-.73-.676-1.04a10.936 10.936 0 0 0-1.66-1.8c.037-.93.244-1.844.61-2.698.236-.571.51-1.125.824-1.658a5.568 5.568 0 0 0 4.123-6.412c.746.32 1.652.354 2.118-.272l-.221-.086a.705.705 0 0 0 .062-.074c-.454-.173-.936-.37-1.291-.686a1.517 1.517 0 0 1-.226-.336c-.215-.438-.19-.964-.396-1.408a1.628 1.628 0 0 0-.404-.528 2.779 2.779 0 0 0-1.32-.757c-.563-.165-1.155-.248-1.695-.47a5.72 5.72 0 0 0-6.099-1.72l-.195.067a2.543 2.543 0 1 0-4.96-1.126c.049-.57.288-1.106.68-1.523-.041.034-.083.067-.122.103a2.556 2.556 0 0 0-.111 3.608l.045.044c.18.221.396.41.638.56A2.55 2.55 0 0 1 26 30.644v.156c.04.68.347 1.314.855 1.765a2.54 2.54 0 0 0 1.85.634l.07-.007-.037.051a5.754 5.754 0 0 0 .515 7.108c.104.238.241.46.409.657.059.068.122.131.188.19a2.416 2.416 0 0 0 1.632.755c.104.124.214.243.332.358-.103.439-.238.87-.403 1.289a13.674 13.674 0 0 1-1.235 2.388c-3.368.96-3.664 6.697-3.543 6.914.145.26-.502 9.268 1.993 20.15-.103 3.11 1.706 8.254 8.128 6.898 8.032.43 10.666 1.664 10.666 1.664s-.763 14.008.326 16.048c.681 1.278.198 3.154-.312 4.479-.19.328-.34.676-.45 1.038-.155.33-.27.53-.27.53h.11c-.412 1.435-.703 3.166-.703 3.166s9.735 1.982 14.018.685c1.662-.504 1.73-.97 1.191-1.354.398-.059.79-.145 1.176-.258 4.286-1.297-2.012-2.359-2.012-2.359z"/>
        <path fill="#FA595F" fill-rule="nonzero" d="M39 36.5a5.5 5.5 0 1 1-11 0 5.5 5.5 0 0 1 11 0z"/>
        <path fill="#F8B9BF" fill-rule="nonzero" d="M52 63.081L52.565 66s.628-.117 1.558-.32c3.178-.697 9.891-2.418 7.291-4.023-2.236-1.379-5.66-.294-7.704.587-.749.32-1.312.618-1.565.757-.094.05-.145.08-.145.08z"/>
        <path fill="#000" fill-rule="nonzero" d="M52.014 63.769l.41 2.231s.635-.125 1.576-.341L53.582 62a17.67 17.67 0 0 0-1.582.807l.014.962z" opacity=".1"/>
        <path fill="#D9DFE8" fill-rule="nonzero" d="M52.053 66L54 65.605 53.559 62 52 62.316z"/>
        <path fill="#000" fill-rule="nonzero" d="M52.06 66l.94-.179L52.828 62l-.828.156z" opacity=".1"/>
        <path fill="#45B0F2" fill-rule="nonzero" d="M34.433 50.296s3.796-1.957 5.176 4.193c1.38 6.15 1.4 8.953 1.4 8.953l11.807-1.805.184 4.246s-12.691 3.45-14.251 3.09c-1.56-.36-6.296-9.054-6.296-9.054s-4.34-6.763 1.98-9.623z"/>
        <g fill="#000" fill-rule="nonzero" opacity=".1">
            <path d="M51.881 63.966l.563 2.939s.626-.118 1.553-.323c3.166-.701 9.857-2.434 7.266-4.05-2.229-1.388-5.642-.297-7.678.59-.746.323-1.308.623-1.559.763-.094.05-.145.081-.145.081z"/>
            <path d="M52.04 64.795l.404 2.11s.626-.118 1.553-.323l-.412-3.46c-.746.323-1.308.623-1.559.763l.014.91z"/>
            <path d="M51.943 67.087l1.934-.405-.438-3.695-1.549.324z"/>
            <path d="M51.943 67.087l.834-.176-.153-3.753-.734.153z"/>
            <path d="M34.425 51.365s3.765-2.052 5.133 4.395c1.368 6.446 1.388 9.385 1.388 9.385l11.71-1.892.181 4.45s-12.585 3.618-14.132 3.24c-1.547-.377-6.243-9.491-6.243-9.491s-4.303-7.09 1.963-10.087z"/>
        </g>
        <path fill="#F37291" fill-rule="nonzero" d="M56.004 99.455l4.605 2.885s6.09 1.007 1.947 2.241c-4.142 1.235-13.556-.653-13.556-.653s.715-4.181 1.477-4.735c.761-.554 5.527.262 5.527.262z"/>
        <path fill="#96A2D0" fill-rule="nonzero" d="M38.09 67.173s2.331 1.333 6.523 2.579c2.458.73 5.55 1.294 7.686 1.637 2.24.341 4.051 1.98 4.582 4.152a3.46 3.46 0 0 1-.03 1.9c-.814 2.402-.649 22.213-.649 22.213L48.89 100s1.157-3.6-.269-5.5c-1.426-1.9.962-15.795.962-15.795s-2.59-1.19-10.476-1.604c-7.39 1.538-10.046-6.48-8.818-8.64 1.227-2.158 7.802-1.288 7.802-1.288z"/>
        <g fill="#000" fill-rule="nonzero" opacity=".1">
            <path d="M54.949 99.185l4.574 2.984s6.048 1.04 1.934 2.318c-4.114 1.276-13.464-.676-13.464-.676s.71-4.324 1.466-4.897c.757-.573 5.49.271 5.49.271z"/>
            <path d="M37.99 67.182s2.281 1.362 6.383 2.633c2.405.746 5.43 1.323 7.52 1.673 2.193.348 3.964 2.022 4.484 4.24a3.682 3.682 0 0 1-.029 1.94c-.797 2.453-.636 22.686-.636 22.686l-7.156.353s1.132-3.676-.262-5.617c-1.395-1.94.94-16.131.94-16.131s-2.534-1.215-10.25-1.638c-7.23 1.57-9.829-6.618-8.628-8.823 1.2-2.205 7.634-1.316 7.634-1.316z"/>
        </g>
        <path fill="#F37291" fill-rule="nonzero" d="M53.004 100.455l4.605 2.885s6.09 1.007 1.947 2.241c-4.142 1.235-13.556-.653-13.556-.653s.715-4.181 1.477-4.735c.761-.554 5.527.262 5.527.262z"/>
        <path fill="#96A2D0" fill-rule="nonzero" d="M37.02 78.992c7.925.416 10.529 1.611 10.529 1.611s-.752 13.568.314 15.542C49 98.24 46.846 102 46.846 102l7.35-.348v-.655c-.021-3.457-.075-19.511.655-21.663a3.476 3.476 0 0 0 .03-1.91c-.535-2.18-2.354-3.828-4.606-4.171-2.149-.343-5.255-.91-7.725-1.644l-.12-.037c-4.139-1.236-6.435-2.554-6.435-2.554s-4.895-.333-6.12 1.836c-.157.281-.834.834-.862 1.28-.184 2.988 1.544 8.198 8.007 6.858z"/>
        <path fill="#F8B9BF" fill-rule="nonzero" d="M49 66.087L49.138 69s.638-.017 1.59-.075c3.245-.197 10.138-.846 7.796-2.794-2.014-1.675-5.561-1.141-7.71-.597a18.813 18.813 0 0 0-1.814.553zM30 46.62s.984.747 2.205 1.572c1.362.326 2.953.616 4.09.808-.353-1.176-.04-2.453.48-3.577A13.314 13.314 0 0 1 39 42.175L32.159 40c.484 1.234.164 2.612-.356 3.79A12.205 12.205 0 0 1 30 46.62z"/>
        <path fill="#000" fill-rule="nonzero" d="M49 67.586L49.056 70s.36-.02.895-.087L50 66a7.413 7.413 0 0 0-.934.574L49 67.586z" opacity=".1"/>
        <path fill="#D9DFE8" fill-rule="nonzero" d="M49 70l1.91-.103L51 66l-1.529.083z"/>
        <path fill="#45B0F2" fill-rule="nonzero" d="M30.151 73.284c4.25 4.38 12.177-.826 14.309-2.368.346-.252.54-.406.54-.406-.787-.795-2.047-1.53-2.53-3.52a42.893 42.893 0 0 1-.935-6.168c-.13-1.647 1.585-4.783 1.09-6.347-.497-1.564-2.538-2.077-3.396-3.493a15.406 15.406 0 0 0-.67-1.018c-1.583-2.185-4.343-3.657-4.343-3.657-5.88-1.99-6.341 6.336-6.195 6.595.147.259-.526 9.437 2.13 20.382z"/>
        <path fill="#000" fill-rule="nonzero" d="M28.777 60.658s3.261 9.6 4.7 10.205c.824.346 5.318-.027 9.007-.41.331-.256.516-.413.516-.413-.752-.809-1.364-2.476-1.824-4.5l-4.734.018s.383-2.86-.04-9.357c-.425-6.496-4.338-5.068-4.338-5.068-6.454 1.956-3.287 9.525-3.287 9.525zM49 70l.689-.044L50 66l-.606.04z" opacity=".1"/>
        <path fill="#45B0F2" fill-rule="nonzero" d="M33.268 51.131s4.105-1.419 4.555 5.07c.45 6.487.047 9.357.047 9.357L50 65.514l-.466 4.363s-13.263 1.589-14.779.987c-1.516-.603-4.937-10.205-4.937-10.205s-3.33-7.572 3.45-9.528z"/>
        <path fill="#000" fill-rule="nonzero" d="M33.174 41.706c.234-.853-.838-.88-1.174-1.706l7 2.133a13.47 13.47 0 0 0-1.406 1.722 6.884 6.884 0 0 1-1.138.142c-1.701.072-2.156-1.355-3.282-2.29z" opacity=".1"/>
        <circle cx="35.5" cy="38.5" r="5.5" fill="#F8B9BF" fill-rule="nonzero" transform="rotate(-2.75 35.5 38.5)"/>
        <path fill="#000" fill-rule="nonzero" d="M33 55s1.696 8.157 3.7 8.99c2.003.833 1.095 1.01 1.095 1.01M41 58.977s-1.386.26-3-.977" opacity=".1"/>
        <circle cx="29.5" cy="30.5" r="2.5" fill="#FA595F" fill-rule="nonzero"/>
        <path fill="#FA595F" fill-rule="nonzero" d="M27.84 32.093a2.222 2.222 0 0 1 0-3.093 2.224 2.224 0 0 0-.211 3.288c.875.91 2.34.954 3.271.098.036-.032.068-.067.1-.101-.94.76-2.324.676-3.16-.192z"/>
        <path fill="#FA595F" fill-rule="nonzero" d="M29.634 32.666c-1.318.085-2.471-.936-2.634-2.333v.167c.056.95.584 1.798 1.384 2.222.8.423 1.753.36 2.498-.167.745-.527 1.169-1.437 1.113-2.388 0-.057-.01-.11-.017-.167.003 1.41-1.024 2.578-2.344 2.666z"/>
        <path fill="#000" fill-rule="nonzero" d="M38.62 33.332c.576.277 1.234.354 1.852.529.617.175 1.246.494 1.518 1.064.199.419.176.915.384 1.329.3.603.99.88 1.626 1.117-.546.716-1.719.521-2.484.034-.765-.486-1.424-1.205-2.314-1.394a2.192 2.192 0 0 0-2.285.994c-.244.417-.33.904-.45 1.368-.31 1.224-.926 2.441-2.006 3.136-1.08.695-2.69.69-3.536-.26-.494-.555-.66-1.31-.806-2.03A4.034 4.034 0 0 1 30 38.191c.05-.865.64-1.602 1.235-2.244a57.25 57.25 0 0 1 2.195-2.196c.645-.62 1.389-1.673 2.36-1.746 1.12-.088 1.912.887 2.83 1.326z" opacity=".1"/>
        <path fill="#FA595F" fill-rule="nonzero" d="M37.62 33.332c.576.277 1.234.354 1.852.529.617.175 1.246.494 1.518 1.064.199.419.176.915.384 1.329.3.603.99.88 1.626 1.117-.546.716-1.719.521-2.484.034-.765-.486-1.424-1.205-2.314-1.394a2.192 2.192 0 0 0-2.285.994c-.244.417-.33.904-.45 1.368-.31 1.224-.926 2.441-2.006 3.136-1.08.695-2.69.69-3.536-.26-.494-.555-.66-1.31-.806-2.03A4.034 4.034 0 0 1 29 38.191c.05-.865.64-1.602 1.235-2.244a57.25 57.25 0 0 1 2.195-2.196c.645-.62 1.389-1.673 2.36-1.746 1.12-.088 1.912.887 2.83 1.326z"/>
        <rect width="17" height="3" x="23" y="67" fill="#D6D6E3" fill-rule="nonzero" rx="1.5"/>
        <path fill="#000" fill-rule="nonzero" d="M23 69v.16c0 .464.484.84 1.08.84h14.84c.596 0 1.08-.376 1.08-.84V69H23z" opacity=".1"/>
        <path fill="#D6D6E3" fill-rule="nonzero" d="M54 70h3v39h-3z"/>
        <path fill="#000" fill-rule="nonzero" d="M54 70h3v2h-3z" opacity=".1"/>
        <path fill="#D6D6E3" fill-rule="nonzero" d="M52 67h81v5H52z"/>
    </g>
</svg>
