<svg xmlns="http://www.w3.org/2000/svg" width="24" height="19" viewBox="0 0 24 19">
    <g fill="#FFF" fill-rule="nonzero">
        <path d="M0 3.035v12.132a3.042 3.042 0 0 0 3.035 3.036h9.806a3.042 3.042 0 0 0 3.035-3.036v-1.965a.6.6 0 1 0-1.202 0v1.965a1.842 1.842 0 0 1-1.838 1.838h-9.8a1.842 1.842 0 0 1-1.838-1.838V3.035c0-1.011.826-1.837 1.837-1.837h9.806c1.012 0 1.838.826 1.838 1.837V5a.6.6 0 1 0 1.202 0V3.035A3.042 3.042 0 0 0 12.846 0h-9.81A3.038 3.038 0 0 0 0 3.035z"/>
        <path d="M18.754 13.224a.595.595 0 0 0 .426.176.595.595 0 0 0 .425-.176l4.1-4.101a.596.596 0 0 0 0-.846l-4.1-4.101a.596.596 0 0 0-.846 0 .596.596 0 0 0 0 .846L21.84 8.1H10.6a.6.6 0 1 0 0 1.202h11.233l-3.08 3.08a.59.59 0 0 0 0 .84z"/>
    </g>
</svg>
