<svg xmlns="http://www.w3.org/2000/svg" width="48" height="48" viewBox="0 0 48 48">
    <g fill="none" fill-rule="evenodd">
        <circle cx="24" cy="24" r="24" fill="#F5F5F5"/>
        <path fill="#979797" fill-rule="nonzero" d="M29.657 26.343a7.97 7.97 0 0 0-3.04-1.907 4.623 4.623 0 0 0 2.008-3.811A4.63 4.63 0 0 0 24 16a4.63 4.63 0 0 0-4.625 4.625c0 1.58.796 2.977 2.008 3.811a7.97 7.97 0 0 0-3.04 1.907A7.948 7.948 0 0 0 16 32h1.25A6.758 6.758 0 0 1 24 25.25 6.758 6.758 0 0 1 30.75 32H32a7.948 7.948 0 0 0-2.343-5.657zM24 24a3.379 3.379 0 0 1-3.375-3.375A3.379 3.379 0 0 1 24 17.25a3.379 3.379 0 0 1 3.375 3.375A3.379 3.379 0 0 1 24 24z"/>
    </g>
</svg>
