<svg xmlns="http://www.w3.org/2000/svg" width="21" height="21" viewBox="0 0 21 21">
    <g fill="#212121" fill-rule="nonzero">
        <path d="M9.301 6.847c.039.076.077.153.115.21.039.058.096.116.135.173.057.058.115.115.191.173.058.038.135.096.23.115a.95.95 0 0 0 .25.077c.096.019.173.019.25.019.076 0 .172 0 .249-.02a.687.687 0 0 0 .21-.076h.02a1.43 1.43 0 0 0 .23-.134c.057-.039.115-.096.172-.154l.02-.019c.057-.058.095-.115.134-.173a.6.6 0 0 0 .096-.191c0-.02 0-.02.019-.039.038-.076.057-.172.077-.25.019-.076.019-.172.019-.248 0-.077 0-.173-.02-.25a1.781 1.781 0 0 0-.076-.249 1.088 1.088 0 0 0-.23-.345l-.039-.039c-.057-.057-.115-.095-.191-.153-.077-.038-.135-.077-.211-.115a1.081 1.081 0 0 0-.23-.077c-.096-.019-.173-.019-.25-.019-.076 0-.172 0-.25.02-.076.018-.153.038-.23.076h-.018a2.092 2.092 0 0 0-.211.115c-.077.058-.135.096-.192.153-.058.058-.115.115-.154.173-.038.058-.076.134-.115.211-.038.077-.057.153-.076.23-.02.096-.02.173-.02.25 0 .076 0 .172.02.249.019.153.057.23.076.307zM11.967 13.866h-.441V9.167a.495.495 0 0 0-.499-.499H9.014a.495.495 0 0 0-.499.5v1.035c0 .268.211.498.499.498h.402v3.184h-.402a.495.495 0 0 0-.499.499v1.035c0 .269.211.499.499.499h2.953a.495.495 0 0 0 .499-.499v-1.035a.512.512 0 0 0-.499-.518z"/>
        <path d="M10.49 0C4.7 0 0 4.699 0 10.49c0 5.792 4.699 10.49 10.49 10.49 5.792 0 10.49-4.698 10.49-10.49C20.98 4.7 16.283 0 10.49 0zm0 19.6c-5.024 0-9.11-4.085-9.11-9.11 0-5.024 4.086-9.11 9.11-9.11 5.025 0 9.11 4.086 9.11 9.11 0 5.025-4.085 9.11-9.11 9.11z"/>
    </g>
</svg>
