<svg xmlns="http://www.w3.org/2000/svg" xmlns:xlink="http://www.w3.org/1999/xlink" width="320" height="320" viewBox="0 0 320 320">
    <defs>
        <circle id="a" cx="160" cy="160" r="160"/>
    </defs>
    <g fill="none" fill-rule="evenodd">
        <mask id="b" fill="#fff">
            <use xlink:href="#a"/>
        </mask>
        <use fill="#EDEDED" xlink:href="#a"/>
        <g mask="url(#b)">
            <g transform="translate(80 78)">
                <path fill="#FFF" d="M6 15h148v104H6z"/>
                <circle cx="80" cy="119" r="37" fill="#45B0F2"/>
                <circle cx="80" cy="119" r="28" fill="#FFF"/>
                <path fill="#3A3A3A" fill-rule="nonzero" d="M154.456 9.63h-31.77V4.849a4.85 4.85 0 0 0-9.697 0v4.783H84.663V4.848a4.85 4.85 0 0 0-9.697 0v4.783H47.845V4.848a4.85 4.85 0 0 0-9.697 0v4.783H5.175a4.85 4.85 0 0 0-4.849 4.848v109.553a4.85 4.85 0 0 0 4.849 4.849h29.758c4.769 20.375 23.075 35.598 44.882 35.598s40.113-15.224 44.882-35.598h29.758a4.85 4.85 0 0 0 4.848-4.849V14.48a4.847 4.847 0 0 0-4.847-4.848zM38.148 19.71a4.85 4.85 0 0 0 9.697 0v-4.382h27.121v4.381a4.85 4.85 0 0 0 9.697 0v-4.381h28.326v4.381a4.85 4.85 0 0 0 9.697 0v-4.381h30.921v25.827H6.023V15.328h32.125v4.381zm41.667 135.072c-20.074 0-36.407-16.332-36.407-36.406 0-20.075 16.333-36.407 36.407-36.407 20.074 0 36.406 16.332 36.406 36.407 0 20.075-16.33 36.406-36.406 36.406zm46.103-36.406c0-25.422-20.682-46.104-46.103-46.104-25.421 0-46.103 20.682-46.103 46.104 0 .27.016.538.02.808H6.022V46.853h147.584v72.33h-27.708c.005-.27.02-.537.02-.807z"/>
                <path fill="#45B0F2" fill-rule="nonzero" d="M82.445 121.73v-18.008a3.723 3.723 0 0 0-7.445 0v19.55c0 .987.392 1.934 1.09 2.632l8.555 8.556a3.712 3.712 0 0 0 2.633 1.09 3.722 3.722 0 0 0 2.632-6.354l-7.465-7.466z"/>
            </g>
        </g>
    </g>
</svg>
