<svg xmlns="http://www.w3.org/2000/svg" xmlns:xlink="http://www.w3.org/1999/xlink" width="320" height="320" viewBox="0 0 320 320">
    <defs>
        <rect id="a" width="235.385" height="130.769" x="40" y="104" rx="3.077"/>
    </defs>
    <g fill="none" fill-rule="evenodd">
        <circle cx="160" cy="160" r="160" fill="#EDEDED"/>
        <rect width="235.385" height="130.769" x="44.615" y="108.615" fill="#D8D8D8" rx="3.077"/>
        <use fill="#FFF" xlink:href="#a"/>
        <rect width="231.385" height="126.769" x="42" y="106" stroke="#3A3A3A" stroke-width="4" rx="3.077"/>
        <path fill="#D8D8D8" d="M259.23 130.385h2v100h-2zM231.23 130.385h2v100h-2zM199.23 130.385h2v100h-2zM168.23 130.385h2v100h-2z"/>
        <path fill="#D8D8D8" d="M113.23 215.385h158v2.308h-158zM113.23 199.385h158v2.308h-158zM113.23 180.385h158v2.308h-158zM113.23 162.385h158v2.308h-158z"/>
        <path fill="#979797" d="M113.23 143.385h158v2.308h-158z"/>
        <path fill="#979797" d="M137.23 130.385h2v100h-2z"/>
        <path fill="#45B0F2" d="M169 163h31v19h-31z"/>
        <g transform="translate(43.77 135.308)">
            <path fill="#D8D8D8" d="M.422 65.231h64.039v2H.422zM22 53h30v2.308H22z"/>
            <circle cx="10.154" cy="54.154" r="6.154" fill="#D8D8D8"/>
            <path fill="#D8D8D8" d="M.422 41.231h64.039v2H.422zM22 29h30v2.308H22z"/>
            <circle cx="10.154" cy="30.154" r="6.154" fill="#D8D8D8"/>
            <path fill="#D8D8D8" d="M.422 17.231h64.039v2H.422z"/>
            <path fill="#45B0F2" d="M22 5h30v2.308H22z"/>
            <circle cx="10.154" cy="6.154" r="6.154" fill="#D8D8D8"/>
        </g>
        <path fill="#3A3A3A" d="M109.231 126.308h4V234h-4z"/>
        <path fill="#3A3A3A" d="M40.769 126.308h233.846v4H40.769z"/>
        <text fill="#000" fill-opacity=".87" font-family="Arial-BoldMT, Arial" font-size="10" font-weight="bold">
            <tspan x="149.796" y="120.692">TEAM</tspan>
        </text>
        <text fill="#45B0F2" font-family="Arial-BoldMT, Arial" font-size="10" font-weight="bold">
            <tspan x="87.907" y="120.692">CALENDAR</tspan>
        </text>
        <text fill="#212121" font-family="Arial-BoldMT, Arial" font-size="10" font-weight="bold">
            <tspan x="47.627" y="120.692">INBOX</tspan>
        </text>
    </g>
</svg>
