<svg xmlns="http://www.w3.org/2000/svg" xmlns:xlink="http://www.w3.org/1999/xlink" width="320" height="320" viewBox="0 0 320 320">
    <defs>
        <rect id="a" width="235.385" height="130.769" x="40" y="104" rx="3.077"/>
    </defs>
    <g fill="none" fill-rule="evenodd">
        <circle cx="160" cy="160" r="160" fill="#EDEDED"/>
        <rect width="235.385" height="130.769" x="44.615" y="108.615" fill="#D8D8D8" rx="3.077"/>
        <use fill="#FFF" xlink:href="#a"/>
        <rect width="231.385" height="126.769" x="42" y="106" stroke="#3A3A3A" stroke-width="4" rx="3.077"/>
        <path fill="#D8D8D8" d="M208.462 143.692H210v63.846h-1.538zM220.77 226.307h21.538v2.308H220.77zM220.77 219.384h33.846v2.308H220.77zM220.77 212.461h25.385v2.308H220.77z"/>
        <path fill="#979797" d="M213.077 205.538h41.538v2.308h-41.538z"/>
        <path fill="#D8D8D8" d="M220.77 195.538h21.538v2.308H220.77zM220.77 188.615h33.846v2.308H220.77zM220.77 181.692h25.385V184H220.77z"/>
        <path fill="#979797" d="M213.077 174.77h41.538v2.307h-41.538z"/>
        <path fill="#D8D8D8" d="M220.77 164.77h21.538v2.307H220.77zM220.77 157.846h33.846v2.308H220.77zM220.77 150.923h25.385v2.308H220.77z"/>
        <path fill="#979797" d="M213.077 144h41.538v2.308h-41.538z"/>
        <text fill="#000" fill-opacity=".87" font-family="Arial-BoldMT, Arial" font-size="10" font-weight="bold" transform="translate(47.462 111.692)">
            <tspan x="102.335" y="9">TEAM</tspan>
        </text>
        <text fill="#000" fill-opacity=".87" font-family="Arial-BoldMT, Arial" font-size="10" font-weight="bold" transform="translate(47.462 111.692)">
            <tspan x="40.446" y="9">CALENDAR</tspan>
        </text>
        <text fill="#45B0F2" font-family="Arial-BoldMT, Arial" font-size="10" font-weight="bold" transform="translate(47.462 111.692)">
            <tspan x=".165" y="9">INBOX</tspan>
        </text>
        <g transform="translate(119.23 139.385)">
            <path fill="#D8D8D8" d="M0 69.231h50.769v2.308H0zM0 61.538h73.077v2.308H0zM0 53.846h73.077v2.308H0zM0 46.154h73.077v2.308H0zM16.923 30h14.615v2.308H16.923z"/>
            <path fill="#979797" d="M16.923 23.077h22.308v2.308H16.923z"/>
            <circle cx="6.154" cy="27.692" r="6.154" fill="#D8D8D8"/>
            <path fill="#979797" d="M0 7.692h26.154V10H0zM0 0h73.077v2.308H0z"/>
        </g>
        <g>
            <path fill="#D8D8D8" d="M83.077 201.616h18.462v2.308H83.077zM47.692 201.616h18.462v2.308H47.692z"/>
            <path fill="#000" d="M47.692 193.923h53.846v2.308H47.692z"/>
            <path fill="#D8D8D8" d="M44.191 186.23h64.04v2H44.19zM83.077 173.923h18.462v2.308H83.077zM47.692 173.923h18.462v2.308H47.692z"/>
            <path fill="#45B0F2" d="M47.692 166.23h53.846v2.309H47.692z"/>
            <path fill="#D8D8D8" d="M44.191 158.539h64.04v2H44.19zM83.077 144.693h18.462V147H83.077zM47.692 144.693h18.462V147H47.692z"/>
            <path fill="#000" d="M47.692 137h53.846v2.308H47.692z"/>
        </g>
        <path fill="#3A3A3A" d="M201.538 126.308h4V234h-4zM109.231 126.308h4V234h-4z"/>
        <path fill="#3A3A3A" d="M40.769 126.308h233.846v4H40.769z"/>
    </g>
</svg>
