<svg xmlns="http://www.w3.org/2000/svg" xmlns:xlink="http://www.w3.org/1999/xlink" width="320" height="320" viewBox="0 0 320 320">
    <defs>
        <circle id="a" cx="160" cy="160" r="160"/>
        <rect id="c" width="235.385" height="150" rx="3.077"/>
    </defs>
    <g fill="none" fill-rule="evenodd">
        <mask id="b" fill="#fff">
            <use xlink:href="#a"/>
        </mask>
        <use fill="#EDEDED" xlink:href="#a"/>
        <g mask="url(#b)">
            <g transform="translate(40 205)">
                <use fill="#FFF" xlink:href="#c"/>
                <rect width="231.385" height="146" x="2" y="2" stroke="#3A3A3A" stroke-width="4" rx="3.077"/>
                <path fill="#D8D8D8" d="M168.462 60H170v63.846h-1.538zM180.77 111.538h21.538v2.308H180.77z"/>
                <path fill="#45B0F2" d="M180.77 104.615h33.846v2.308H180.77z"/>
                <path fill="#D8D8D8" d="M180.77 97.692h25.385V100H180.77z"/>
                <path fill="#979797" d="M173.077 90.77h41.538v2.307h-41.538z"/>
                <path fill="#D8D8D8" d="M180.77 80.77h21.538v2.307H180.77zM180.77 73.846h33.846v2.308H180.77zM180.77 66.923h25.385v2.308H180.77z"/>
                <path fill="#979797" d="M173.077 60h41.538v2.308h-41.538z"/>
                <text fill="#979797" font-family="Arial-BoldMT, Arial" font-size="7.692" font-weight="bold" transform="translate(168.462 47.692)">
                    <tspan x="0" y="7">ACTIONS</tspan>
                </text>
                <g transform="translate(79.23 55.385)">
                    <path fill="#D8D8D8" d="M0 53.846h73.077v2.308H0zM0 46.154h73.077v2.308H0zM16.923 30h14.615v2.308H16.923z"/>
                    <path fill="#979797" d="M16.923 23.077h22.308v2.308H16.923z"/>
                    <circle cx="6.154" cy="27.692" r="6.154" fill="#D8D8D8"/>
                    <path fill="#979797" d="M0 7.692h26.154V10H0zM0 0h73.077v2.308H0z"/>
                </g>
                <g>
                    <path fill="#D8D8D8" d="M43.077 114.616H61.54v2.308H43.077zM7.692 114.616h18.462v2.308H7.692z"/>
                    <path fill="#45B0F2" d="M7.692 106.923h53.846v2.308H7.692z"/>
                    <path fill="#D8D8D8" d="M2.348 99.23h66.883v2H2.348zM43.077 86.923H61.54v2.308H43.077zM7.692 86.923h18.462v2.308H7.692z"/>
                    <path fill="#979797" d="M7.692 79.23h53.846v2.309H7.692z"/>
                    <path fill="#D8D8D8" d="M2.348 71.539h66.883v2H2.348zM43.077 57.693H61.54V60H43.077zM7.692 57.693h18.462V60H7.692z"/>
                    <path fill="#979797" d="M7.692 50h53.846v2.308H7.692z"/>
                </g>
                <path fill="#3A3A3A" d="M161.538 43.027h4v104.991h-4zM69.231 43.027h4v104.991h-4zM.769 22.308h233.846v4H.769z"/>
                <path fill="#3A3A3A" d="M.769 42.308h233.846v4H.769z"/>
                <path fill="#D8D8D8" d="M32 33h160v2H32z"/>
                <path fill="#45B0F2" d="M32 33h60v2H32z"/>
                <circle cx="91.5" cy="33.5" r="3.5" fill="#45B0F2"/>
                <path fill="#45B0F2" d="M97.16 8.538c.854 0 1.52.305 2.002.914.573.721.859 1.917.859 3.588 0 1.666-.288 2.864-.865 3.593-.477.601-1.142.902-1.996.902-.857 0-1.548-.33-2.073-.989-.525-.659-.787-1.834-.787-3.524 0-1.659.288-2.853.865-3.582.477-.601 1.142-.902 1.995-.902zm0 1.4a.844.844 0 0 0-.546.196c-.16.13-.285.364-.373.7-.116.437-.174 1.172-.174 2.206 0 1.033.052 1.743.156 2.13.104.387.235.644.394.772a.84.84 0 0 0 .543.193.844.844 0 0 0 .547-.196c.16-.13.285-.363.373-.7.116-.433.174-1.166.174-2.2 0-1.033-.052-1.743-.156-2.13-.104-.386-.235-.645-.394-.775a.832.832 0 0 0-.544-.195zm6.845-1.4c.854 0 1.52.305 2.002.914.573.721.859 1.917.859 3.588 0 1.666-.288 2.864-.865 3.593-.477.601-1.142.902-1.996.902-.857 0-1.548-.33-2.073-.989-.525-.659-.787-1.834-.787-3.524 0-1.659.288-2.853.865-3.582.477-.601 1.142-.902 1.995-.902zm0 1.4a.844.844 0 0 0-.546.196c-.16.13-.285.364-.373.7-.116.437-.174 1.172-.174 2.206 0 1.033.052 1.743.156 2.13.104.387.235.644.394.772a.84.84 0 0 0 .543.193.844.844 0 0 0 .547-.196c.16-.13.285-.363.373-.7.116-.433.174-1.166.174-2.2 0-1.033-.052-1.743-.156-2.13-.104-.386-.235-.645-.394-.775a.832.832 0 0 0-.544-.195zm4.676 2.753v-1.689h1.689v1.69h-1.69zm0 4.694v-1.69h1.689v1.69h-1.69zm6.268-8.847c.853 0 1.52.305 2.001.914.573.721.86 1.917.86 3.588 0 1.666-.289 2.864-.866 3.593-.477.601-1.142.902-1.995.902-.857 0-1.549-.33-2.073-.989-.525-.659-.788-1.834-.788-3.524 0-1.659.289-2.853.866-3.582.476-.601 1.142-.902 1.995-.902zm0 1.4a.844.844 0 0 0-.547.196c-.16.13-.284.364-.373.7-.116.437-.174 1.172-.174 2.206 0 1.033.052 1.743.156 2.13.105.387.236.644.394.772a.84.84 0 0 0 .544.193.844.844 0 0 0 .547-.196c.16-.13.284-.363.372-.7.117-.433.175-1.166.175-2.2 0-1.033-.052-1.743-.157-2.13-.104-.386-.235-.645-.393-.775a.832.832 0 0 0-.544-.195zm6.845-1.4c.853 0 1.52.305 2.001.914.573.721.86 1.917.86 3.588 0 1.666-.289 2.864-.866 3.593-.477.601-1.142.902-1.995.902-.858 0-1.549-.33-2.073-.989-.525-.659-.788-1.834-.788-3.524 0-1.659.289-2.853.866-3.582.476-.601 1.142-.902 1.995-.902zm0 1.4a.844.844 0 0 0-.547.196c-.16.13-.284.364-.373.7-.116.437-.174 1.172-.174 2.206 0 1.033.052 1.743.156 2.13.105.387.236.644.394.772a.84.84 0 0 0 .544.193.844.844 0 0 0 .547-.196c.16-.13.284-.363.372-.7.117-.433.175-1.166.175-2.2 0-1.033-.052-1.743-.157-2.13-.104-.386-.235-.645-.393-.775a.832.832 0 0 0-.544-.195zm4.58 2.296v-1.232h1.231v1.232h-1.232zm0 5.15v-1.231h1.231v1.232h-1.232zm2.824-2.325l1.081-.144c.125.613.336 1.054.634 1.325.299.27.663.405 1.091.405.509 0 .939-.176 1.29-.528.35-.353.525-.79.525-1.31 0-.497-.162-.907-.487-1.23-.324-.322-.737-.483-1.238-.483-.204 0-.458.04-.763.12l.12-.95c.072.008.13.012.175.012.46 0 .875-.12 1.244-.36.368-.24.552-.611.552-1.112 0-.397-.134-.725-.402-.985-.269-.26-.615-.391-1.04-.391-.42 0-.771.132-1.052.397-.28.264-.46.66-.54 1.19l-1.082-.193c.132-.725.433-1.287.901-1.686.47-.398 1.052-.598 1.75-.598.48 0 .923.104 1.327.31.405.206.714.488.929.844.214.357.321.735.321 1.136 0 .38-.102.727-.306 1.04-.205.312-.507.56-.908.745.521.12.926.37 1.214.748.289.379.433.853.433 1.421a2.6 2.6 0 0 1-.841 1.957c-.561.534-1.27.802-2.128.802-.773 0-1.415-.23-1.926-.691-.51-.461-.802-1.058-.874-1.791zm6.839.018l1.135-.096c.085.553.28.968.586 1.247a1.59 1.59 0 0 0 1.11.417c.52 0 .96-.196 1.321-.589.36-.392.541-.913.541-1.562 0-.617-.173-1.104-.52-1.46-.346-.357-.8-.535-1.36-.535a1.886 1.886 0 0 0-1.605.853l-1.016-.132.853-4.525h4.381v1.033h-3.515l-.475 2.368c.529-.368 1.084-.553 1.665-.553.769 0 1.418.267 1.947.8.529.532.793 1.217.793 2.055 0 .797-.232 1.486-.697 2.067-.565.713-1.336 1.07-2.314 1.07-.801 0-1.455-.225-1.962-.673-.507-.449-.796-1.044-.868-1.785z"/>
            </g>
        </g>
        <g mask="url(#b)">
            <g transform="translate(120 90)">
                <circle cx="40" cy="47" r="38" fill="#45B0F2"/>
                <circle cx="40" cy="47" r="30" fill="#FFF"/>
                <path fill="#3A3A3A" fill-rule="nonzero" d="M77.259 37.174c-.002-.004 0-.01-.002-.014-.001-.006-.006-.01-.007-.016a38.342 38.342 0 0 0-3.814-9.195c-.015-.03-.015-.062-.032-.092-.017-.028-.044-.044-.063-.071a38.721 38.721 0 0 0-5.094-6.87l3.067-3.067 2.022 2.02 6.06-6.06-6.06-6.062-6.062 6.062 2.02 2.02-3.067 3.067a38.791 38.791 0 0 0-6.87-5.095c-.027-.018-.043-.045-.071-.062-.029-.018-.063-.016-.092-.032A38.298 38.298 0 0 0 50 9.893c-.006-.002-.01-.006-.016-.007-.005-.002-.01 0-.014 0a38.315 38.315 0 0 0-5.684-1.07V7.143h2.143A3.575 3.575 0 0 0 50 3.57 3.575 3.575 0 0 0 46.429 0H33.57A3.575 3.575 0 0 0 30 3.571a3.575 3.575 0 0 0 3.571 3.572h2.143v1.673a38.261 38.261 0 0 0-5.683 1.07l-.014.001c-.006.002-.01.006-.016.007a38.356 38.356 0 0 0-9.194 3.815c-.03.014-.063.014-.093.031-.028.017-.044.044-.071.063a38.773 38.773 0 0 0-6.87 5.094l-3.067-3.068 2.02-2.02-6.062-6.062-6.06 6.062 6.06 6.06 2.022-2.02 3.067 3.067a38.714 38.714 0 0 0-5.093 6.87c-.019.027-.047.043-.063.071-.017.03-.016.062-.031.092a38.284 38.284 0 0 0-3.815 9.195c-.001.006-.005.01-.007.016l-.001.014a38.452 38.452 0 0 0-.002 19.937c.002.006 0 .01.002.015.001.007.007.013.008.02a38.307 38.307 0 0 0 3.813 9.191c.015.03.015.062.032.092.024.041.058.072.085.111a38.852 38.852 0 0 0 5.988 7.791c.022.028.031.06.057.086.025.026.058.034.085.057a38.79 38.79 0 0 0 7.832 6.01c.027.019.043.046.071.063.043.024.09.036.135.056A38.332 38.332 0 0 0 30 84.393c.006.001.01.006.016.007l.022.003a38.458 38.458 0 0 0 19.922 0c.008-.002.015 0 .022-.003.006-.001.01-.006.016-.007a38.356 38.356 0 0 0 9.152-3.79c.045-.02.092-.03.135-.056.028-.017.044-.044.071-.063a38.83 38.83 0 0 0 7.832-6.01c.027-.023.06-.031.085-.057.026-.026.035-.06.057-.086a38.852 38.852 0 0 0 5.988-7.791c.027-.039.061-.069.085-.111.017-.03.016-.062.032-.092a38.307 38.307 0 0 0 3.813-9.191c.001-.007.007-.013.008-.02.002-.005 0-.01.002-.015a38.513 38.513 0 0 0 0-19.937zm-3.923-25.387l2.02 2.022-2.02 2.02-2.022-2.02 2.022-2.022zM4.644 13.81l2.02-2.022 2.022 2.022-2.022 2.02-2.02-2.02zm66.723 43.218l2.736.733a35.49 35.49 0 0 1-2.496 5.983l-2.438-1.409a1.429 1.429 0 0 0-1.429 2.474l2.433 1.405a35.845 35.845 0 0 1-3.946 5.137l-1.984-1.984a1.427 1.427 0 0 0-2.02 0 1.427 1.427 0 0 0 0 2.02l1.984 1.984a35.845 35.845 0 0 1-5.137 3.946l-1.404-2.433a1.425 1.425 0 0 0-1.952-.523 1.427 1.427 0 0 0-.523 1.951L56.6 78.75a35.442 35.442 0 0 1-5.983 2.496l-.733-2.735a1.429 1.429 0 0 0-2.76.74l.73 2.726a35.64 35.64 0 0 1-6.425.844V80c0-.79-.639-1.429-1.429-1.429s-1.429.639-1.429 1.429v2.821a35.64 35.64 0 0 1-6.425-.844l.73-2.726a1.43 1.43 0 0 0-2.76-.74l-.733 2.735A35.49 35.49 0 0 1 23.4 78.75l1.409-2.439a1.429 1.429 0 0 0-2.475-1.428l-1.404 2.433a35.845 35.845 0 0 1-5.137-3.946l1.984-1.984a1.427 1.427 0 0 0 0-2.02 1.427 1.427 0 0 0-2.02 0l-1.984 1.984a35.845 35.845 0 0 1-3.946-5.137l2.433-1.404a1.427 1.427 0 0 0 .523-1.952 1.425 1.425 0 0 0-1.952-.523l-2.438 1.409a35.442 35.442 0 0 1-2.496-5.983l2.736-.733a1.429 1.429 0 0 0-.74-2.76l-2.727.73a35.769 35.769 0 0 1-.845-6.426h2.822a1.427 1.427 0 1 0 0-2.857H4.32a35.64 35.64 0 0 1 .845-6.425l2.727.731a1.429 1.429 0 0 0 .74-2.76l-2.736-.734a35.49 35.49 0 0 1 2.496-5.983l2.438 1.408a1.426 1.426 0 0 0 1.95-.523 1.429 1.429 0 0 0-.522-1.95l-2.433-1.405a35.845 35.845 0 0 1 3.945-5.137l1.985 1.984a1.425 1.425 0 0 0 2.02 0 1.427 1.427 0 0 0 0-2.02l-1.985-1.984a35.948 35.948 0 0 1 5.138-3.946l1.404 2.434a1.431 1.431 0 0 0 1.951.523 1.427 1.427 0 0 0 .523-1.951l-1.408-2.44a35.442 35.442 0 0 1 5.982-2.496l.733 2.736a1.428 1.428 0 1 0 2.76-.74l-.73-2.727a35.443 35.443 0 0 1 5.143-.768c.443-.032.843-.057 1.23-.075.019 0 .036 0 .054-.002v2.822c0 .79.639 1.428 1.429 1.428s1.429-.638 1.429-1.428v-2.822a47.042 47.042 0 0 1 1.284.077c1.753.133 3.47.39 5.143.768l-.73 2.727a1.43 1.43 0 0 0 2.76.74l.733-2.736a35.49 35.49 0 0 1 5.982 2.496l-1.408 2.44a1.429 1.429 0 0 0 2.474 1.428l1.404-2.434a35.948 35.948 0 0 1 5.138 3.946L62.224 22.9a1.427 1.427 0 0 0 1.01 2.439c.366 0 .732-.14 1.01-.419l1.985-1.984a35.845 35.845 0 0 1 3.945 5.137l-2.433 1.404a1.428 1.428 0 1 0 1.429 2.474l2.439-1.408a35.442 35.442 0 0 1 2.495 5.983l-2.735.734a1.428 1.428 0 1 0 .74 2.76l2.727-.731a35.64 35.64 0 0 1 .844 6.425h-2.823c-.79 0-1.428.639-1.428 1.429s.638 1.428 1.428 1.428h2.822A35.673 35.673 0 0 1 74.834 55l-2.727-.73a1.428 1.428 0 0 0-.74 2.759zM38.571 8.603V4.286h-5a.716.716 0 0 1-.714-.715c0-.392.322-.714.714-.714H46.43c.392 0 .714.322.714.714a.716.716 0 0 1-.714.715h-5v4.317a33.168 33.168 0 0 0-2.858 0z"/>
                <path fill="#3A3A3A" fill-rule="nonzero" d="M43.614 43.647L25.123 30.271a1.429 1.429 0 1 0-1.996 1.996l13.379 18.494a5.079 5.079 0 0 0 4.118 2.096 5.08 5.08 0 0 0 3.599-1.491 5.085 5.085 0 0 0 1.476-3.996 5.083 5.083 0 0 0-2.085-3.723zm-1.411 5.699a2.246 2.246 0 0 1-1.754.647 2.229 2.229 0 0 1-1.63-.91L30.657 37.8l11.279 8.159a2.236 2.236 0 0 1 .267 3.386z"/>
            </g>
        </g>
    </g>
</svg>
