<svg xmlns="http://www.w3.org/2000/svg" xmlns:xlink="http://www.w3.org/1999/xlink" width="320" height="320" viewBox="0 0 320 320">
    <defs>
        <rect id="a" width="235.385" height="130.769" x="40" y="104" rx="3.077"/>
    </defs>
    <g fill="none" fill-rule="evenodd">
        <circle cx="160" cy="160" r="160" fill="#EDEDED"/>
        <rect width="235.385" height="130.769" x="44.615" y="108.615" fill="#D8D8D8" rx="3.077"/>
        <use fill="#FFF" xlink:href="#a"/>
        <rect width="231.385" height="126.769" x="42" y="106" stroke="#3A3A3A" stroke-width="4" rx="3.077"/>
        <path fill="#D8D8D8" d="M221 209h21.538v2.308H221z"/>
        <circle cx="212.5" cy="210.5" r="2.5" fill="#D8D8D8"/>
        <circle cx="212.5" cy="200.5" r="2.5" fill="#D8D8D8"/>
        <circle cx="212.5" cy="190.5" r="2.5" fill="#D8D8D8"/>
        <circle cx="212.5" cy="180.5" r="2.5" fill="#45B0F2"/>
        <circle cx="212.5" cy="169.5" r="2.5" fill="#D8D8D8"/>
        <circle cx="212.5" cy="158.5" r="2.5" fill="#D8D8D8"/>
        <path fill="#D8D8D8" d="M221 199h33.846v2.308H221zM221 189h21.538v2.308H221z"/>
        <path fill="#45B0F2" d="M221 179h25.385v2.308H221z"/>
        <path fill="#D8D8D8" d="M221 168.692h21.538V171H221zM220.769 156.923h25.385v2.308h-25.385z"/>
        <text fill="#979797" font-family="Arial-BoldMT, Arial" font-size="7.692" font-weight="bold">
            <tspan x="208.462" y="146.692">ACTIONS</tspan>
        </text>
        <path fill="#D8D8D8" d="M119.231 208.615H170v2.308h-50.769zM119.231 200.923h73.077v2.308h-73.077zM119.231 193.231h73.077v2.308h-73.077zM119.231 185.538h73.077v2.308h-73.077z"/>
        <path fill="#979797" d="M119 179h22.308v2.308H119zM119.231 147.077h26.154v2.308h-26.154zM119 156h36v2.308h-36z"/>
        <g transform="translate(43.77 135.308)">
            <path fill="#D8D8D8" d="M.422 65.231h64.039v2H.422zM22 53h30v2.308H22z"/>
            <circle cx="10.154" cy="54.154" r="6.154" fill="#D8D8D8"/>
            <path fill="#D8D8D8" d="M.422 41.231h64.039v2H.422zM22 29h30v2.308H22z"/>
            <circle cx="10.154" cy="30.154" r="6.154" fill="#D8D8D8"/>
            <path fill="#D8D8D8" d="M.422 17.231h64.039v2H.422z"/>
            <path fill="#45B0F2" d="M22 5h30v2.308H22z"/>
            <circle cx="10.154" cy="6.154" r="6.154" fill="#D8D8D8"/>
        </g>
        <path fill="#3A3A3A" d="M199.231 126.308h4V234h-4zM109.231 126.308h4V234h-4z"/>
        <path fill="#3A3A3A" d="M40.769 126.308h233.846v4H40.769z"/>
        <text fill="#45B0F2" font-family="Arial-BoldMT, Arial" font-size="10" font-weight="bold">
            <tspan x="149.796" y="120.692">TEAM</tspan>
        </text>
        <text fill="#000" fill-opacity=".87" font-family="Arial-BoldMT, Arial" font-size="10" font-weight="bold">
            <tspan x="87.907" y="120.692">CALENDAR</tspan>
        </text>
        <text fill="#212121" font-family="Arial-BoldMT, Arial" font-size="10" font-weight="bold">
            <tspan x="47.627" y="120.692">INBOX</tspan>
        </text>
    </g>
</svg>
