<svg xmlns="http://www.w3.org/2000/svg" xmlns:xlink="http://www.w3.org/1999/xlink" width="320" height="320" viewBox="0 0 320 320">
    <defs>
        <rect id="a" width="235.385" height="130.769" x="40" y="104" rx="3.077"/>
    </defs>
    <g fill="none" fill-rule="evenodd">
        <circle cx="160" cy="160" r="160" fill="#EDEDED"/>
        <rect width="235.385" height="130.769" x="44.615" y="108.615" fill="#D8D8D8" rx="3.077"/>
        <use fill="#FFF" xlink:href="#a"/>
        <rect width="231.385" height="126.769" x="42" y="106" stroke="#3A3A3A" stroke-width="4" rx="3.077"/>
        <path fill="#D8D8D8" d="M208.462 143.692H210v63.846h-1.538zM220.77 226.307h21.538v2.308H220.77zM220.77 219.384h33.846v2.308H220.77z"/>
        <path fill="#45B0F2" d="M220.77 212.461h25.385v2.308H220.77z"/>
        <path fill="#979797" d="M213.077 205.538h41.538v2.308h-41.538z"/>
        <path fill="#D8D8D8" d="M220.77 195.538h21.538v2.308H220.77z"/>
        <path fill="#45B0F2" d="M220.77 188.615h33.846v2.308H220.77z"/>
        <path fill="#D8D8D8" d="M220.77 181.692h25.385V184H220.77z"/>
        <path fill="#979797" d="M213.077 174.77h41.538v2.307h-41.538z"/>
        <path fill="#D8D8D8" d="M220.77 164.77h21.538v2.307H220.77z"/>
        <path fill="#45B0F2" d="M220.77 157.846h33.846v2.308H220.77z"/>
        <path fill="#D8D8D8" d="M220.77 150.923h25.385v2.308H220.77z"/>
        <path fill="#979797" d="M213.077 144h41.538v2.308h-41.538z"/>
        <text fill="#979797" font-family="Arial-BoldMT, Arial" font-size="7.692" font-weight="bold" transform="translate(208.462 131.692)">
            <tspan x="0" y="7">ACTIONS</tspan>
        </text>
        <g transform="translate(119.23 139.385)">
            <path fill="#D8D8D8" d="M0 69.231h50.769v2.308H0zM0 61.538h73.077v2.308H0zM0 53.846h73.077v2.308H0zM0 46.154h73.077v2.308H0zM16.923 30h14.615v2.308H16.923z"/>
            <path fill="#979797" d="M16.923 23.077h22.308v2.308H16.923z"/>
            <circle cx="6.154" cy="27.692" r="6.154" fill="#D8D8D8"/>
            <path fill="#979797" d="M0 7.692h26.154V10H0zM0 0h73.077v2.308H0z"/>
        </g>
        <g>
            <path fill="#D8D8D8" d="M83.077 201.616h18.462v2.308H83.077zM47.692 201.616h18.462v2.308H47.692z"/>
            <path fill="#C9C9C9" d="M47.692 193.923h53.846v2.308H47.692z"/>
            <path fill="#D8D8D8" d="M44.191 186.23h64.04v2H44.19zM83.077 173.923h18.462v2.308H83.077zM47.692 173.923h18.462v2.308H47.692z"/>
            <path fill="#3A3A3A" d="M47.692 166.23h53.846v2.309H47.692z"/>
            <path fill="#D8D8D8" d="M44.191 158.539h64.04v2H44.19zM83.077 144.693h18.462V147H83.077zM47.692 144.693h18.462V147H47.692z"/>
            <path fill="#C9C9C9" d="M47.692 137h53.846v2.308H47.692z"/>
        </g>
        <path fill="#3A3A3A" d="M201.538 126.308h4V234h-4zM109.231 126.308h4V234h-4z"/>
        <path fill="#3A3A3A" d="M40.769 126.308h233.846v4H40.769z"/>
        <path fill="#45B0F2" d="M137.16 112.538c.854 0 1.52.305 2.002.914.573.721.859 1.917.859 3.588 0 1.666-.288 2.864-.865 3.593-.477.601-1.142.902-1.996.902-.857 0-1.548-.33-2.073-.989-.525-.659-.787-1.834-.787-3.524 0-1.659.288-2.853.865-3.582.477-.601 1.142-.902 1.995-.902zm0 1.4a.844.844 0 0 0-.546.196c-.16.13-.285.364-.373.7-.116.437-.174 1.172-.174 2.206 0 1.033.052 1.743.156 2.13.104.387.235.644.394.772a.84.84 0 0 0 .543.193.844.844 0 0 0 .547-.196c.16-.13.285-.363.373-.7.116-.433.174-1.166.174-2.2 0-1.033-.052-1.743-.156-2.13-.104-.386-.235-.645-.394-.775a.832.832 0 0 0-.544-.195zm6.845-1.4c.854 0 1.52.305 2.002.914.573.721.859 1.917.859 3.588 0 1.666-.288 2.864-.865 3.593-.477.601-1.142.902-1.996.902-.857 0-1.548-.33-2.073-.989-.525-.659-.787-1.834-.787-3.524 0-1.659.288-2.853.865-3.582.477-.601 1.142-.902 1.995-.902zm0 1.4a.844.844 0 0 0-.546.196c-.16.13-.285.364-.373.7-.116.437-.174 1.172-.174 2.206 0 1.033.052 1.743.156 2.13.104.387.235.644.394.772a.84.84 0 0 0 .543.193.844.844 0 0 0 .547-.196c.16-.13.285-.363.373-.7.116-.433.174-1.166.174-2.2 0-1.033-.052-1.743-.156-2.13-.104-.386-.235-.645-.394-.775a.832.832 0 0 0-.544-.195zm4.676 2.753v-1.689h1.689v1.69h-1.69zm0 4.694v-1.69h1.689v1.69h-1.69zm6.268-8.847c.853 0 1.52.305 2.001.914.573.721.86 1.917.86 3.588 0 1.666-.289 2.864-.866 3.593-.477.601-1.142.902-1.995.902-.857 0-1.549-.33-2.073-.989-.525-.659-.788-1.834-.788-3.524 0-1.659.289-2.853.866-3.582.476-.601 1.142-.902 1.995-.902zm0 1.4a.844.844 0 0 0-.547.196c-.16.13-.284.364-.373.7-.116.437-.174 1.172-.174 2.206 0 1.033.052 1.743.156 2.13.105.387.236.644.394.772a.84.84 0 0 0 .544.193.844.844 0 0 0 .547-.196c.16-.13.284-.363.372-.7.117-.433.175-1.166.175-2.2 0-1.033-.052-1.743-.157-2.13-.104-.386-.235-.645-.393-.775a.832.832 0 0 0-.544-.195zm6.845-1.4c.853 0 1.52.305 2.001.914.573.721.86 1.917.86 3.588 0 1.666-.289 2.864-.866 3.593-.477.601-1.142.902-1.995.902-.858 0-1.549-.33-2.073-.989-.525-.659-.788-1.834-.788-3.524 0-1.659.289-2.853.866-3.582.476-.601 1.142-.902 1.995-.902zm0 1.4a.844.844 0 0 0-.547.196c-.16.13-.284.364-.373.7-.116.437-.174 1.172-.174 2.206 0 1.033.052 1.743.156 2.13.105.387.236.644.394.772a.84.84 0 0 0 .544.193.844.844 0 0 0 .547-.196c.16-.13.284-.363.372-.7.117-.433.175-1.166.175-2.2 0-1.033-.052-1.743-.157-2.13-.104-.386-.235-.645-.393-.775a.832.832 0 0 0-.544-.195zm4.58 2.296v-1.232h1.231v1.232h-1.232zm0 5.15v-1.231h1.231v1.232h-1.232zm2.824-2.325l1.081-.144c.125.613.336 1.054.634 1.325.299.27.663.405 1.091.405.509 0 .939-.176 1.29-.528.35-.353.525-.79.525-1.31 0-.497-.162-.907-.487-1.23-.324-.322-.737-.483-1.238-.483-.204 0-.458.04-.763.12l.12-.95c.072.008.13.012.175.012.46 0 .875-.12 1.244-.36.368-.24.552-.611.552-1.112 0-.397-.134-.725-.402-.985-.269-.26-.615-.391-1.04-.391-.42 0-.771.132-1.052.397-.28.264-.46.66-.54 1.19l-1.082-.193c.132-.725.433-1.287.901-1.686.47-.398 1.052-.598 1.75-.598.48 0 .923.104 1.327.31.405.206.714.488.929.844.214.357.321.735.321 1.136 0 .38-.102.727-.306 1.04-.205.312-.507.56-.908.745.521.12.926.37 1.214.748.289.379.433.853.433 1.421a2.6 2.6 0 0 1-.841 1.957c-.561.534-1.27.802-2.128.802-.773 0-1.415-.23-1.926-.691-.51-.461-.802-1.058-.874-1.791zm6.839.018l1.135-.096c.085.553.28.968.586 1.247a1.59 1.59 0 0 0 1.11.417c.52 0 .96-.196 1.321-.589.36-.392.541-.913.541-1.562 0-.617-.173-1.104-.52-1.46-.346-.357-.8-.535-1.36-.535a1.886 1.886 0 0 0-1.605.853l-1.016-.132.853-4.525h4.381v1.033h-3.515l-.475 2.368c.529-.368 1.084-.553 1.665-.553.769 0 1.418.267 1.947.8.529.532.793 1.217.793 2.055 0 .797-.232 1.486-.697 2.067-.565.713-1.336 1.07-2.314 1.07-.801 0-1.455-.225-1.962-.673-.507-.449-.796-1.044-.868-1.785z"/>
    </g>
</svg>
