<svg xmlns="http://www.w3.org/2000/svg" width="36" height="36" viewBox="0 0 36 36">
    <g fill="none" fill-rule="evenodd">
        <circle cx="18" cy="18" r="18" fill="#45B0F2"/>
        <path fill="#FFF" fill-rule="nonzero" d="M23.665 18.254a1.112 1.112 0 0 1 1.587 0 1.14 1.14 0 0 1 0 1.587l-6.65 6.651a1.14 1.14 0 0 1-.809.333c-.317 0-.603-.127-.81-.333l-6.65-6.651a1.112 1.112 0 0 1 0-1.587 1.112 1.112 0 0 1 1.587 0l4.746 4.762V10.111A1.116 1.116 0 0 1 17.792 9c.619 0 1.111.492 1.111 1.111v12.904l4.762-4.761z"/>
    </g>
</svg>
