<svg xmlns="http://www.w3.org/2000/svg" width="36" height="36" viewBox="0 0 36 36">
    <g fill="none" fill-rule="evenodd">
        <circle cx="18" cy="18" r="18" fill="#45B0F2"/>
        <path fill="#FFF" fill-rule="nonzero" d="M11.909 17.571a1.112 1.112 0 0 1-1.587 0 1.14 1.14 0 0 1 0-1.587l6.65-6.651A1.14 1.14 0 0 1 17.78 9c.317 0 .603.127.81.333l6.65 6.651a1.112 1.112 0 0 1 0 1.587 1.112 1.112 0 0 1-1.587 0l-4.746-4.762v12.905a1.116 1.116 0 0 1-1.126 1.111 1.104 1.104 0 0 1-1.111-1.111V12.81l-4.762 4.761z"/>
    </g>
</svg>
