<svg xmlns="http://www.w3.org/2000/svg" width="16" height="16" viewBox="0 0 16 16">
    <path fill="#000" fill-opacity=".54" fill-rule="nonzero" d="M.014 6.31a.296.296 0 0 1 .18-.215 6.908 6.908 0 0 1 2.57-.49c1.387 0 2.458.396 2.87.575l4.41-3.75c-.155-1.354.576-2.28.608-2.32a.298.298 0 0 1 .215-.11.307.307 0 0 1 .225.087l4.52 4.52a.295.295 0 0 1-.025.441c-.646.513-1.435.62-1.983.62a3.94 3.94 0 0 1-.306-.011l-3.77 4.43c.258.661 1.044 3.043.092 5.434a.295.295 0 0 1-.485.1l-4.317-4.318-4.02 4.021a.295.295 0 0 1-.42 0 .296.296 0 0 1 0-.419l4.021-4.02L.095 6.58a.297.297 0 0 1-.08-.27z"/>
</svg>
