<svg xmlns="http://www.w3.org/2000/svg" width="10" height="10" viewBox="0 0 10 10">
    <path fill="#FFF" fill-rule="nonzero" d="M.004 4.017a.189.189 0 0 1 .115-.137 4.407 4.407 0 0 1 1.638-.312c.884 0 1.566.253 1.83.367l2.809-2.388A2.108 2.108 0 0 1 6.784.07.19.19 0 0 1 6.92 0a.196.196 0 0 1 .143.055l2.88 2.878a.188.188 0 0 1-.015.28c-.412.327-.915.396-1.264.396-.078 0-.144-.004-.195-.008L6.068 6.422c.164.42.664 1.937.058 3.46a.188.188 0 0 1-.31.063l-2.75-2.749-2.563 2.56a.188.188 0 1 1-.267-.267l2.562-2.56L.055 4.19a.189.189 0 0 1-.051-.172z"/>
</svg>
