<svg xmlns="http://www.w3.org/2000/svg" xmlns:xlink="http://www.w3.org/1999/xlink" width="349" height="320" viewBox="0 0 349 320">
    <defs>
        <rect id="a" width="306" height="170" rx="4"/>
    </defs>
    <g fill="none" fill-rule="evenodd">
        <circle cx="189" cy="160" r="160" fill="#EDEDED"/>
        <g transform="translate(0 75)">
            <rect width="306" height="170" x="6" y="6" fill="#D8D8D8" rx="4"/>
            <use fill="#FFF" xlink:href="#a"/>
            <rect width="302" height="166" x="2" y="2" stroke="#3A3A3A" stroke-width="4" rx="4"/>
            <path fill="#D8D8D8" d="M219 52h2v83h-2zM235 159h28v3h-28zM235 150h44v3h-44z"/>
            <path fill="#45B0F2" d="M235 141h33v3h-33z"/>
            <path fill="#979797" d="M225 132h54v3h-54z"/>
            <path fill="#D8D8D8" d="M235 119h28v3h-28z"/>
            <path fill="#45B0F2" d="M235 110h44v3h-44z"/>
            <path fill="#D8D8D8" d="M235 101h33v3h-33z"/>
            <path fill="#979797" d="M225 92h54v3h-54z"/>
            <path fill="#D8D8D8" d="M235 79h28v3h-28z"/>
            <path fill="#45B0F2" d="M235 70h44v3h-44z"/>
            <path fill="#D8D8D8" d="M235 61h33v3h-33z"/>
            <path fill="#979797" d="M225 52h54v3h-54z"/>
            <text fill="#979797" font-family="Arial-BoldMT, Arial" font-size="10" font-weight="bold" transform="translate(219 36)">
                <tspan x="0" y="9">ACTIONS</tspan>
            </text>
            <g transform="translate(103 46)">
                <path fill="#D8D8D8" d="M0 90h66v3H0zM0 80h95v3H0zM0 70h95v3H0zM0 60h95v3H0zM22 39h19v3H22z"/>
                <path fill="#979797" d="M22 30h29v3H22z"/>
                <circle cx="8" cy="36" r="8" fill="#D8D8D8"/>
                <path fill="#979797" d="M0 10h34v3H0zM0 0h95v3H0z"/>
            </g>
            <g>
                <path fill="#D8D8D8" d="M56 123h24v3H56zM10 123h24v3H10z"/>
                <path fill="#979797" d="M10 113h70v3H10z"/>
                <path fill="#D8D8D8" d="M4 103h86v4H4zM56 87h24v3H56zM10 87h24v3H10z"/>
                <path fill="#979797" d="M10 77h70v3H10z"/>
                <path fill="#D8D8D8" d="M4 67h86v4H4zM56 49h24v3H56zM10 49h24v3H10z"/>
                <path fill="#979797" d="M10 39h70v3H10z"/>
                <path fill="#D8D8D8" d="M1 29h89v1H1z"/>
            </g>
            <path fill="#3A3A3A" d="M210 29h4v140h-4zM90 29h4v140h-4z"/>
            <path fill="#3A3A3A" d="M1 29h304v4H1z"/>
            <path fill="#45B0F2" d="M126.309 10.5c1.109 0 1.976.396 2.601 1.188.745.937 1.117 2.492 1.117 4.664 0 2.166-.375 3.724-1.125 4.671-.62.782-1.484 1.172-2.593 1.172-1.115 0-2.013-.428-2.696-1.285-.682-.857-1.023-2.384-1.023-4.582 0-2.156.375-3.708 1.125-4.656.62-.781 1.484-1.172 2.594-1.172zm0 1.82c-.266 0-.503.085-.711.254-.209.17-.37.473-.485.91-.15.568-.226 1.524-.226 2.868 0 1.343.067 2.266.203 2.77.135.502.306.836.512 1.003.205.167.441.25.707.25.265 0 .502-.085.71-.254.209-.17.37-.473.485-.91.15-.563.226-1.516.226-2.86 0-1.343-.067-2.266-.203-2.769-.135-.503-.306-.839-.511-1.008a1.081 1.081 0 0 0-.707-.254zm8.898-1.82c1.11 0 1.977.396 2.602 1.188.744.937 1.117 2.492 1.117 4.664 0 2.166-.375 3.724-1.125 4.671-.62.782-1.485 1.172-2.594 1.172-1.115 0-2.013-.428-2.695-1.285-.683-.857-1.024-2.384-1.024-4.582 0-2.156.375-3.708 1.125-4.656.62-.781 1.485-1.172 2.594-1.172zm0 1.82c-.266 0-.503.085-.71.254-.21.17-.37.473-.485.91-.151.568-.227 1.524-.227 2.868 0 1.343.068 2.266.203 2.77.136.502.306.836.512 1.003.206.167.441.25.707.25.266 0 .503-.085.711-.254.208-.17.37-.473.484-.91.151-.563.227-1.516.227-2.86 0-1.343-.068-2.266-.203-2.769-.136-.503-.306-.839-.512-1.008a1.081 1.081 0 0 0-.707-.254zm6.078 3.578v-2.195h2.195v2.195h-2.195zm0 6.102v-2.195h2.195V22h-2.195zm8.149-11.5c1.109 0 1.976.396 2.601 1.188.745.937 1.117 2.492 1.117 4.664 0 2.166-.375 3.724-1.125 4.671-.62.782-1.484 1.172-2.593 1.172-1.115 0-2.013-.428-2.696-1.285-.682-.857-1.023-2.384-1.023-4.582 0-2.156.375-3.708 1.125-4.656.62-.781 1.484-1.172 2.594-1.172zm0 1.82c-.266 0-.503.085-.711.254-.209.17-.37.473-.485.91-.15.568-.226 1.524-.226 2.868 0 1.343.067 2.266.203 2.77.135.502.306.836.512 1.003.205.167.441.25.707.25.265 0 .502-.085.71-.254.209-.17.37-.473.485-.91.15-.563.226-1.516.226-2.86 0-1.343-.067-2.266-.203-2.769-.135-.503-.306-.839-.511-1.008a1.081 1.081 0 0 0-.707-.254zm8.898-1.82c1.11 0 1.977.396 2.602 1.188.744.937 1.117 2.492 1.117 4.664 0 2.166-.375 3.724-1.125 4.671-.62.782-1.485 1.172-2.594 1.172-1.115 0-2.013-.428-2.695-1.285-.683-.857-1.024-2.384-1.024-4.582 0-2.156.375-3.708 1.125-4.656.62-.781 1.485-1.172 2.594-1.172zm0 1.82c-.266 0-.503.085-.71.254-.21.17-.37.473-.485.91-.151.568-.227 1.524-.227 2.868 0 1.343.068 2.266.203 2.77.136.502.306.836.512 1.003.206.167.441.25.707.25.266 0 .503-.085.711-.254.208-.17.37-.473.484-.91.151-.563.227-1.516.227-2.86 0-1.343-.068-2.266-.203-2.769-.136-.503-.306-.839-.512-1.008a1.081 1.081 0 0 0-.707-.254zm5.953 2.985v-1.602h1.602v1.602h-1.602zm0 6.695v-1.602h1.602V22h-1.602zm3.672-3.023l1.406-.188c.162.797.436 1.371.825 1.723.388.351.86.527 1.417.527.662 0 1.22-.23 1.676-.687.456-.459.684-1.026.684-1.704 0-.645-.211-1.178-.633-1.597-.422-.42-.958-.63-1.61-.63-.265 0-.596.053-.992.157l.157-1.234c.093.01.169.015.226.015.6 0 1.138-.156 1.617-.468.48-.313.72-.795.72-1.446 0-.515-.175-.942-.524-1.28-.35-.34-.8-.509-1.352-.509-.547 0-1.002.172-1.367.516-.365.344-.599.86-.703 1.547l-1.406-.25c.172-.943.562-1.673 1.172-2.192.609-.518 1.367-.777 2.273-.777.625 0 1.2.134 1.727.402A2.91 2.91 0 0 1 174.477 12c.278.464.418.956.418 1.477 0 .494-.133.945-.399 1.351s-.659.73-1.18.969c.677.156 1.204.48 1.579.973.375.492.562 1.108.562 1.847 0 1-.365 1.848-1.094 2.543-.729.695-1.65 1.043-2.765 1.043-1.006 0-1.84-.3-2.504-.898-.664-.6-1.043-1.375-1.137-2.328zm8.89.023l1.477-.125c.11.719.363 1.26.762 1.621.398.362.879.543 1.441.543.677 0 1.25-.255 1.72-.766.468-.51.702-1.187.702-2.03 0-.803-.225-1.436-.676-1.9-.45-.463-1.04-.695-1.77-.695a2.452 2.452 0 0 0-2.085 1.11l-1.32-.172 1.109-5.883h5.695v1.344h-4.57l-.617 3.078c.687-.48 1.409-.719 2.164-.719 1 0 1.844.347 2.531 1.04.688.692 1.031 1.583 1.031 2.671 0 1.037-.302 1.932-.906 2.688-.734.927-1.737 1.39-3.008 1.39-1.041 0-1.892-.291-2.55-.875-.66-.583-1.036-1.356-1.13-2.32z"/>
        </g>
    </g>
</svg>
